<?xml version="1.0" encoding="UTF-8"?>
<!DOCTYPE svg PUBLIC "-//W3C//DTD SVG 1.1//EN" "http://www.w3.org/Graphics/SVG/1.1/DTD/svg11.dtd">
<svg version="1.2" width="85mm" height="55mm" viewBox="0 0 8500 5500" preserveAspectRatio="xMidYMid" fill-rule="evenodd" stroke-width="28.222" stroke-linejoin="round" xmlns="http://www.w3.org/2000/svg" xmlns:ooo="http://xml.openoffice.org/svg/export" xmlns:xlink="http://www.w3.org/1999/xlink" xmlns:presentation="http://sun.com/xmlns/staroffice/presentation" xmlns:smil="http://www.w3.org/2001/SMIL20/" xmlns:anim="urn:oasis:names:tc:opendocument:xmlns:animation:1.0" xml:space="preserve">
 <defs class="ClipPathGroup">
  <clipPath id="presentation_clip_path" clipPathUnits="userSpaceOnUse">
   <rect x="0" y="0" width="8500" height="5500"/>
  </clipPath>
  <clipPath id="presentation_clip_path_shrink" clipPathUnits="userSpaceOnUse">
   <rect x="8" y="5" width="8483" height="5489"/>
  </clipPath>
 </defs>
 <defs class="TextShapeIndex">
  <g ooo:slide="id1" ooo:id-list="id3 id4 id5 id6 id7 id8 id9 id10 id11 id12 id13 id14"/>
 </defs>
 <defs class="EmbeddedBulletChars">
  <g id="bullet-char-template-57356" transform="scale(0.00048828125,-0.00048828125)">
   <path d="M 580,1141 L 1163,571 580,0 -4,571 580,1141 Z"/>
  </g>
  <g id="bullet-char-template-57354" transform="scale(0.00048828125,-0.00048828125)">
   <path d="M 8,1128 L 1137,1128 1137,0 8,0 8,1128 Z"/>
  </g>
  <g id="bullet-char-template-10146" transform="scale(0.00048828125,-0.00048828125)">
   <path d="M 174,0 L 602,739 174,1481 1456,739 174,0 Z M 1358,739 L 309,1346 659,739 1358,739 Z"/>
  </g>
  <g id="bullet-char-template-10132" transform="scale(0.00048828125,-0.00048828125)">
   <path d="M 2015,739 L 1276,0 717,0 1260,543 174,543 174,936 1260,936 717,1481 1274,1481 2015,739 Z"/>
  </g>
  <g id="bullet-char-template-10007" transform="scale(0.00048828125,-0.00048828125)">
   <path d="M 0,-2 C -7,14 -16,27 -25,37 L 356,567 C 262,823 215,952 215,954 215,979 228,992 255,992 264,992 276,990 289,987 310,991 331,999 354,1012 L 381,999 492,748 772,1049 836,1024 860,1049 C 881,1039 901,1025 922,1006 886,937 835,863 770,784 769,783 710,716 594,584 L 774,223 C 774,196 753,168 711,139 L 727,119 C 717,90 699,76 672,76 641,76 570,178 457,381 L 164,-76 C 142,-110 111,-127 72,-127 30,-127 9,-110 8,-76 1,-67 -2,-52 -2,-32 -2,-23 -1,-13 0,-2 Z"/>
  </g>
  <g id="bullet-char-template-10004" transform="scale(0.00048828125,-0.00048828125)">
   <path d="M 285,-33 C 182,-33 111,30 74,156 52,228 41,333 41,471 41,549 55,616 82,672 116,743 169,778 240,778 293,778 328,747 346,684 L 369,508 C 377,444 397,411 428,410 L 1163,1116 C 1174,1127 1196,1133 1229,1133 1271,1133 1292,1118 1292,1087 L 1292,965 C 1292,929 1282,901 1262,881 L 442,47 C 390,-6 338,-33 285,-33 Z"/>
  </g>
  <g id="bullet-char-template-9679" transform="scale(0.00048828125,-0.00048828125)">
   <path d="M 813,0 C 632,0 489,54 383,161 276,268 223,411 223,592 223,773 276,916 383,1023 489,1130 632,1184 813,1184 992,1184 1136,1130 1245,1023 1353,916 1407,772 1407,592 1407,412 1353,268 1245,161 1136,54 992,0 813,0 Z"/>
  </g>
  <g id="bullet-char-template-8226" transform="scale(0.00048828125,-0.00048828125)">
   <path d="M 346,457 C 273,457 209,483 155,535 101,586 74,649 74,723 74,796 101,859 155,911 209,963 273,989 346,989 419,989 480,963 531,910 582,859 608,796 608,723 608,648 583,586 532,535 482,483 420,457 346,457 Z"/>
  </g>
  <g id="bullet-char-template-8211" transform="scale(0.00048828125,-0.00048828125)">
   <path d="M -4,459 L 1135,459 1135,606 -4,606 -4,459 Z"/>
  </g>
  <g id="bullet-char-template-61548" transform="scale(0.00048828125,-0.00048828125)">
   <path d="M 173,740 C 173,903 231,1043 346,1159 462,1274 601,1332 765,1332 928,1332 1067,1274 1183,1159 1299,1043 1357,903 1357,740 1357,577 1299,437 1183,322 1067,206 928,148 765,148 601,148 462,206 346,322 231,437 173,577 173,740 Z"/>
  </g>
 </defs>
 <defs class="TextEmbeddedBitmaps"/>
 <g>
  <g id="id2" class="Master_Slide">
   <g id="bg-id2" class="Background"/>
   <g id="bo-id2" class="BackgroundObjects"/>
  </g>
 </g>
 <g class="SlideGroup">
  <g>
   <g id="container-id1">
    <g id="id1" class="Slide" clip-path="url(#presentation_clip_path)">
     <g class="Page">
      <g class="com.sun.star.drawing.PolyPolygonShape">
       <g id="id3">
        <rect class="BoundingBox" stroke="none" fill="none" x="0" y="0" width="8502" height="5502"/>
        <path fill="rgb(246,135,18)" stroke="none" d="M 0,5501 L 8501,5501 8501,0 0,0 0,5501 Z"/>
       </g>
      </g>
      <g class="com.sun.star.drawing.PolyPolygonShape">
       <g id="id4">
        <rect class="BoundingBox" stroke="none" fill="none" x="1136" y="1325" width="728" height="1233"/>
        <path fill="rgb(255,255,255)" stroke="none" d="M 1136,2557 L 1136,1325 1383,1325 1383,2363 1863,2363 1863,2557 1136,2557 Z"/>
       </g>
      </g>
      <g class="com.sun.star.drawing.ClosedBezierShape">
       <g id="id5">
        <rect class="BoundingBox" stroke="none" fill="none" x="2290" y="1325" width="1195" height="1233"/>
        <path fill="rgb(255,255,255)" stroke="none" d="M 3210,2557 C 3197,2511 3184,2465 3170,2418 3156,2371 3141,2324 3126,2277 L 2633,2277 C 2617,2324 2603,2370 2588,2417 2574,2463 2560,2510 2546,2557 L 2290,2557 C 2361,2350 2434,2145 2509,1941 2583,1736 2663,1531 2746,1325 L 3026,1325 C 3110,1532 3190,1737 3265,1941 3341,2145 3413,2350 3484,2557 L 3210,2557 Z M 2976,1828 C 2946,1743 2915,1658 2882,1572 L 2879,1572 C 2846,1656 2814,1741 2784,1827 2754,1913 2725,1999 2696,2084 L 3064,2084 C 3036,1999 3007,1913 2976,1828 Z"/>
       </g>
      </g>
      <g class="com.sun.star.drawing.PolyPolygonShape">
       <g id="id6">
        <rect class="BoundingBox" stroke="none" fill="none" x="4028" y="1325" width="1015" height="1233"/>
        <path fill="rgb(255,255,255)" stroke="none" d="M 4717,2557 L 4252,1646 4248,1646 4248,2557 4028,2557 4028,1325 4351,1325 4817,2233 4821,2233 4821,1325 5042,1325 5042,2557 4717,2557 Z"/>
       </g>
      </g>
      <g class="com.sun.star.drawing.ClosedBezierShape">
       <g id="id7">
        <rect class="BoundingBox" stroke="none" fill="none" x="5689" y="1325" width="1051" height="1233"/>
        <path fill="rgb(255,255,255)" stroke="none" d="M 6693,2188 C 6662,2266 6618,2332 6560,2387 6503,2442 6433,2484 6352,2513 6271,2542 6179,2557 6077,2557 L 5690,2557 5690,1325 6130,1325 C 6223,1325 6307,1337 6382,1363 6458,1388 6522,1426 6575,1476 6627,1526 6668,1588 6696,1664 6725,1739 6739,1826 6739,1926 6739,2023 6723,2111 6693,2188 Z M 6460,1776 C 6446,1725 6423,1680 6392,1641 6361,1603 6321,1573 6273,1551 6225,1528 6166,1517 6098,1517 L 5938,1517 5938,2363 6095,2363 C 6158,2363 6214,2353 6261,2332 6309,2312 6349,2283 6382,2246 6415,2209 6440,2164 6456,2113 6473,2061 6481,2004 6481,1941 6481,1884 6474,1828 6460,1776 Z"/>
       </g>
      </g>
      <g class="com.sun.star.drawing.PolyPolygonShape">
       <g id="id8">
        <rect class="BoundingBox" stroke="none" fill="none" x="1135" y="2815" width="6230" height="235"/>
        <path fill="rgb(255,255,255)" stroke="none" d="M 1136,2816 L 7364,2816 7364,3049 1136,3049 1136,2816 Z"/>
       </g>
      </g>
      <g class="com.sun.star.drawing.PolyPolygonShape">
       <g id="id9">
        <rect class="BoundingBox" stroke="none" fill="none" x="1136" y="2815" width="234" height="1346"/>
        <path fill="rgb(255,255,255)" stroke="none" d="M 1136,2816 L 1369,2816 1369,4160 1136,4160 1136,2816 Z"/>
       </g>
      </g>
      <g class="com.sun.star.drawing.PolyPolygonShape">
       <g id="id10">
        <rect class="BoundingBox" stroke="none" fill="none" x="7131" y="2031" width="234" height="1019"/>
        <path fill="rgb(255,255,255)" stroke="none" d="M 7131,2031 L 7364,2031 7364,3049 7131,3049 7131,2031 Z"/>
       </g>
      </g>
      <g class="com.sun.star.drawing.ClosedBezierShape">
       <g id="id11">
        <rect class="BoundingBox" stroke="none" fill="none" x="1708" y="3366" width="670" height="808"/>
        <path fill="rgb(255,255,255)" stroke="none" d="M 2326,3546 C 2292,3526 2257,3512 2222,3503 2187,3494 2151,3489 2112,3489 2074,3489 2040,3496 2010,3510 1980,3524 1955,3543 1934,3567 1914,3592 1898,3621 1887,3656 1876,3690 1870,3728 1870,3769 1870,3812 1876,3851 1887,3885 1898,3920 1914,3949 1936,3974 1958,3998 1984,4017 2015,4030 2045,4044 2081,4050 2121,4050 2139,4050 2157,4050 2175,4048 2194,4046 2210,4043 2223,4039 L 2223,3738 2374,3738 2374,4133 C 2293,4160 2206,4173 2110,4173 2050,4173 1995,4164 1945,4146 1896,4128 1854,4101 1819,4067 1783,4033 1756,3992 1737,3943 1717,3894 1708,3840 1708,3779 1708,3716 1718,3660 1738,3608 1759,3557 1787,3514 1824,3478 1860,3442 1903,3414 1953,3395 2003,3375 2058,3366 2116,3366 2165,3366 2211,3371 2252,3381 2294,3392 2336,3408 2376,3430 L 2326,3546 Z"/>
       </g>
      </g>
      <g class="com.sun.star.drawing.ClosedBezierShape">
       <g id="id12">
        <rect class="BoundingBox" stroke="none" fill="none" x="2744" y="3366" width="763" height="810"/>
        <path fill="rgb(255,255,255)" stroke="none" d="M 3481,3932 C 3464,3983 3439,4026 3405,4062 3371,4098 3331,4126 3283,4146 3235,4165 3180,4175 3119,4175 2996,4175 2902,4143 2839,4077 2775,4012 2744,3912 2744,3777 2744,3715 2752,3659 2769,3607 2785,3557 2810,3514 2843,3478 2875,3442 2916,3415 2963,3395 3011,3376 3066,3366 3128,3366 3193,3366 3250,3375 3297,3394 3345,3413 3384,3440 3415,3474 3446,3509 3469,3551 3484,3600 3499,3650 3506,3704 3506,3763 3506,3826 3498,3882 3481,3932 Z M 3330,3665 C 3322,3629 3309,3599 3292,3573 3275,3547 3252,3526 3224,3511 3195,3496 3161,3488 3121,3488 3082,3488 3048,3496 3021,3510 2993,3525 2971,3545 2954,3570 2937,3595 2925,3624 2917,3658 2910,3691 2906,3725 2906,3761 2906,3806 2910,3847 2919,3883 2927,3919 2941,3949 2958,3974 2976,3999 2999,4018 3027,4032 3056,4045 3090,4052 3129,4052 3167,4052 3200,4044 3227,4029 3255,4014 3277,3993 3294,3968 3311,3943 3323,3914 3331,3880 3339,3847 3343,3812 3343,3775 3343,3736 3339,3699 3330,3665 Z"/>
       </g>
      </g>
      <g class="com.sun.star.drawing.PolyPolygonShape">
       <g id="id13">
        <rect class="BoundingBox" stroke="none" fill="none" x="3881" y="3381" width="465" height="780"/>
        <path fill="rgb(255,255,255)" stroke="none" d="M 3881,4160 L 3881,3381 4339,3381 4339,3505 4038,3505 4038,3696 4298,3696 4298,3819 4038,3819 4038,4037 4344,4037 4344,4160 3881,4160 Z"/>
       </g>
      </g>
      <g class="com.sun.star.drawing.ClosedBezierShape">
       <g id="id14">
        <rect class="BoundingBox" stroke="none" fill="none" x="4740" y="3381" width="664" height="780"/>
        <path fill="rgb(255,255,255)" stroke="none" d="M 5374,3927 C 5355,3976 5327,4018 5291,4052 5254,4087 5210,4113 5159,4132 5108,4150 5050,4160 4985,4160 L 4740,4160 4740,3381 5019,3381 C 5077,3381 5131,3389 5178,3405 5226,3421 5266,3445 5299,3476 5333,3509 5359,3549 5376,3596 5394,3644 5403,3699 5403,3761 5403,3823 5393,3878 5374,3927 Z M 5227,3667 C 5218,3635 5204,3606 5184,3582 5165,3558 5139,3539 5109,3525 5079,3511 5042,3504 4999,3504 L 4896,3504 4896,4037 4997,4037 C 5037,4037 5072,4031 5102,4018 5132,4005 5157,3986 5178,3963 5199,3940 5214,3912 5225,3879 5235,3846 5240,3810 5240,3771 5240,3735 5236,3700 5227,3667 Z"/>
       </g>
      </g>
     </g>
    </g>
   </g>
  </g>
 </g>
</svg>