<?xml version="1.0" encoding="utf-8"?>
<!-- Generator: Adobe Illustrator 24.0.2, SVG Export Plug-In . SVG Version: 6.00 Build 0)  -->
<svg version="1.1" id="Voorstel" xmlns="http://www.w3.org/2000/svg" xmlns:xlink="http://www.w3.org/1999/xlink" x="0px" y="0px"
	 viewBox="0 0 822.05 170.08" style="enable-background:new 0 0 822.05 170.08;" xml:space="preserve">
<style type="text/css">
	.st0{fill:#6236FF;}
	.st1{fill:#E3E3FF;}
	.st2{fill:#4D2EE8;}
</style>
<g>
	<path class="st0" d="M300.24,31.55v12.21h-22.39v73.28h-12.21V43.76h-22.39V31.55H300.24z"/>
	<path class="st0" d="M365.38,55.98v61.07h-12.21v-8.91c-4.96,6.49-12.09,9.93-20.36,9.93c-17.81,0-30.53-14.12-30.53-31.55
		c0-17.43,12.72-31.55,30.53-31.55c8.27,0,15.39,3.44,20.36,9.93v-8.91H365.38z M353.17,86.51c0-10.69-8.65-19.34-19.34-19.34
		c-10.69,0-19.34,8.65-19.34,19.34c0,10.69,8.65,19.34,19.34,19.34C344.52,105.85,353.17,97.2,353.17,86.51z"/>
	<path class="st0" d="M379.62,36.64c0-5.09,4.07-9.16,9.16-9.16c5.09,0,9.16,4.07,9.16,9.16s-4.07,9.16-9.16,9.16
		C383.7,45.8,379.62,41.73,379.62,36.64z M382.68,55.98h12.21v61.07h-12.21V55.98z"/>
	<path class="st0" d="M424.41,27.48v89.57h-12.21V27.48H424.41z"/>
	<path class="st0" d="M499.72,86.51c0,17.43-14.12,31.55-31.55,31.55c-17.43,0-31.55-14.12-31.55-31.55
		c0-17.43,14.12-31.55,31.55-31.55C485.6,54.96,499.72,69.08,499.72,86.51z M487.51,86.51c0-10.56-8.78-19.34-19.34-19.34
		s-19.34,8.78-19.34,19.34c0,10.56,8.78,19.34,19.34,19.34S487.51,97.07,487.51,86.51z"/>
	<path class="st0" d="M548.57,54.96v13.36c-2.93-0.89-7.38-0.89-11.2,0.51c-8.02,3.05-13.23,9.8-13.23,20.99v27.23h-12.21V55.98
		h12.21v13.11C528.34,60.3,537.12,54.96,548.57,54.96z"/>
	<path class="st0" d="M652.39,82.95v34.1h-12.21v-34.1c0-9.8-3.31-15.78-11.7-15.78c-7.38,0-14.76,5.85-14.76,16.29v33.59h-12.21
		v-34.1c0-9.8-3.31-15.78-11.71-15.78c-7.38,0-14.76,5.85-14.76,16.29v33.59h-12.21V55.98h12.21v7.12
		c3.56-4.07,7.51-8.14,17.05-8.14c7.89,0,13.87,3.31,17.56,9.67c6.49-7,12.47-9.67,21.12-9.67
		C644.24,54.96,652.39,64.88,652.39,82.95z"/>
	<path class="st0" d="M727.69,55.98v61.07h-12.21v-8.91c-4.96,6.49-12.09,9.93-20.36,9.93c-17.81,0-30.53-14.12-30.53-31.55
		c0-17.43,12.72-31.55,30.53-31.55c8.27,0,15.39,3.44,20.36,9.93v-8.91H727.69z M715.48,86.51c0-10.69-8.65-19.34-19.34-19.34
		s-19.34,8.65-19.34,19.34c0,10.69,8.65,19.34,19.34,19.34S715.48,97.2,715.48,86.51z"/>
	<path class="st0" d="M808.1,86.51c0,17.43-12.72,31.55-30.53,31.55c-8.27,0-15.39-3.44-20.36-9.93v41.48h-12.21V55.98h12.21v8.91
		c4.96-6.49,12.09-9.93,20.36-9.93C795.37,54.96,808.1,69.08,808.1,86.51z M795.88,86.51c0-10.69-8.65-19.34-19.34-19.34
		s-19.34,8.65-19.34,19.34c0,10.69,8.65,19.34,19.34,19.34S795.88,97.2,795.88,86.51z"/>
</g>
<g>
	<polygon class="st1" points="44.66,126.55 58.97,35.18 109.62,22.75 119.93,101.61 	"/>
	<g>
		<polygon class="st0" points="139.34,90.25 117.84,85.23 47.4,108.51 35.61,105.19 49.88,40.93 58,41.92 103.89,31.3 109.98,26.3 
			121.72,24.22 109.62,22.75 58.97,35.18 39.88,32.52 11.66,115.59 44.66,126.55 119.93,101.61 163.36,112.6 137.36,33.66 
			129.68,39.09 		"/>
	</g>
	<g>
		<polygon class="st0" points="76.19,69.95 62.79,58.5 54.99,59.83 76.47,94.3 107.44,51.06 112.39,44.32 141.33,25.75 
			132.81,23.76 110.74,31.98 93.44,51.06 		"/>
	</g>
	<polygon class="st2" points="119.93,101.61 119.94,101.61 117.77,85.25 47.44,108.49 44.6,126.53 44.66,126.55 	"/>
	<polygon class="st2" points="58,41.92 103.89,31.3 109.96,26.31 109.5,22.78 58.97,35.18 58.96,35.17 57.9,41.91 	"/>
	<polygon class="st0" points="54.99,59.83 55.07,59.95 55.09,59.81 	"/>
	<polygon class="st2" points="107.44,51.06 112.36,44.37 110.72,32.01 93.44,51.06 76.19,69.95 62.79,58.5 55.09,59.81 55.07,59.95 
		76.47,94.3 	"/>
</g>
</svg>
