<svg xmlns="http://www.w3.org/2000/svg" height="120" width="120" viewBox="18 7.199999809265137 86.59999084472656 86.69999694824219">
    <style>
        .a{
        fill:#4db05b;
        }
        .b{
        fill:#003a40;
        }
    </style>
    <g>
        <path d="M59.1 24.6V16 7.2L53.7 16.7C38.9 20 27.7 32.8 26.7 48.4h8.7C36.4 35.8 46.5 25.7 59.1 24.6" class="a"/>
        <path d="m35.4 52.7h-8.7-8.7l9.5 5.4c3.3 14.8 16.1 26 31.7 27V76.5C46.5 75.4 36.4 65.4 35.4 52.7" class="b"/>
        <path d="m87.2 48.4h8.7 8.7L95.1 43C91.8 28.1 79.1 16.9 63.5 16v8.7c12.6 1 22.7 11.1 23.7 23.7" class="b"/>
        <path d="m63.5 76.5v8.7 8.7l5.4-9.5C83.7 81.1 95 68.3 95.9 52.7H87.2C86.2 65.4 76.1 75.4 63.5 76.5" class="a"/>
        <path d="m61.3 52.4c-1 0-1.9-0.8-1.9-1.9 0-1 0.9-1.9 1.9-1.9 1 0 1.9 0.8 1.9 1.9 0 1-0.8 1.9-1.9 1.9M64 47.9 47.9 37.2 58.6 53.2 74.7 64Z" class="b"/>
        <polygon points="58.6 53.2 55 47.8 38.6 50.6 55 53.3 47.9 64 58.6 56.9 61.3 73.3 64.1 56.9 " class="a"/>
        <polygon points="67.6 47.8 74.7 37.1 64.1 44.3 61.3 27.8 58.6 44.3 64 47.9 67.6 53.3 84.1 50.6 " class="a"/>
        <animateTransform
                attributeName="transform"
                type="rotate"
                from="0 61.5 50.5"
                to="360 61.5 50.5"
                dur="3s"
                repeatCount="indefinite" />
    </g>
</svg>