<svg xmlns="http://www.w3.org/2000/svg" viewBox="0 0 265.66589 76.171814" height="76.1718mm" width="265.666mm" version="1.1">
 <rect style="paint-order:fill markers stroke;fill:#fff" height="76.1718" width="265.666" y="4.95491e-9" x=".00000439453"/>
 <path style="stroke-linejoin:round;paint-order:fill markers stroke;stroke:#ee1c24;stroke-linecap:round;stroke-width:1.28437;fill:none" d="m24.8014 38.3187h231.939v30.6002h-231.939z"/>
 <path style="stroke-linejoin:round;paint-order:fill markers stroke;stroke:#fcb03f;stroke-linecap:round;stroke-width:1.28437;fill:none" d="m22.1555 35.6729h231.938v30.6002h-231.938z"/>
 <path style="stroke-linejoin:round;paint-order:fill markers stroke;stroke:#fdf000;stroke-linecap:round;stroke-width:1.28437;fill:none" d="m19.5097 33.0271h231.938v30.6002h-231.938z"/>
 <path style="stroke-linejoin:round;paint-order:fill markers stroke;stroke:#38b54a;stroke-linecap:round;stroke-width:1.28437;fill:none" d="m16.8638 30.3813h231.938v30.6002h-231.938z"/>
 <path style="stroke-linejoin:round;paint-order:fill markers stroke;stroke:#00aeee;stroke-linecap:round;stroke-width:1.28437;fill:none" d="m14.2179 27.7355h231.938v30.6002h-231.938z"/>
 <path style="stroke-linejoin:round;paint-order:fill markers stroke;stroke:#662d91;stroke-linecap:round;stroke-width:1.28437;fill:none" d="m11.572 25.0897h231.938v30.6002h-231.938z"/>
 <path style="stroke-linejoin:round;paint-order:fill markers stroke;stroke:#000;stroke-linecap:round;stroke-width:1.28437;fill:#fff" d="m8.92617 22.4439h231.938v30.6002h-231.938z"/>
 <path style="fill:#fff" d="m46.7698 12.4956c-8.3444-0.3525-13.119 11.2129-6.7051 16.707 2.80518 3.3432 7.71173 2.88639 11.2383 2.27735 4.13513 2.26017 6.69369-3.50637 5.25976-6.89453 0.93157-6.0116-3.39929-12.2626-9.79297-12.0898zm0.008 6.94141c4.86324-0.10111 2.57177 7.74438-1.41406 5.17188-2.4307-1.2759-1.2707-5.2644 1.4141-5.1719z"/>
 <path style="fill:#fff" d="m64.6096 12.5444c-7.15917 0.0178-10.8678 7.79592-9.47461 14.1387 0.0305 3.50603-1.64103 12.2634 4.52148 11.0117 2.87141-0.59644 2.39598-4.36838 2.57813-6.08203 7.74102 2.40849 15.3645-6.93814 11.084-13.9336-1.67745-3.12522-5.13598-5.2594-8.70898-5.13477zm0.40234 6.97461c4.60427 0.28305 1.86366 7.57808-1.75781 4.91797-2.28917-1.38929-0.87703-5.2727 1.75781-4.91797z"/>
 <path style="fill:#fff" d="m76.9729 7.25731c-4.10076-0.39416-2.04987 6.25858-4.98828 5.23828-0.84369 2.40026-1.79204 6.31767 1.82812 7.17188-0.98914 4.68136 0.16875 12.3655 6.35938 12.3027 4.84829 1.40391 6.27722-6.83667 1.21484-6.90039-1.50429-0.95403-1.54627-6.10999 1.44922-6.03711 2.85681-1.70152 1.14938-6.61712-2.1211-6.27539 0.52497-2.70507-0.56449-5.66005-3.74218-5.5z"/>
 <path style="fill:#fff" d="m85.7893 8.74169c-3.43643 0.0241-3.42977 3.80022-3.14062 5.99023 0.13066 5.18434-1.57243 11.3168 0.69531 16.1328 3.25647 3.36412 7.78117-1.54207 6.01758-5.29492-0.1159-5.1007 0.1437-10.1404-0.3399-14.916-0.5904-1.16767-1.9615-1.8997-3.2324-1.91211z"/>
 <path style="fill:#fff" d="m91.3909 12.7417c-5.7646 0.82877-2.56935 8.88544-3.3711 12.6094-1.78707 3.83562 2.72785 9.00785 6.09766 5.42578 2.5726-3.02483-1.33472-8.83128 1.91211-11.0762 3.45946 0.83131 0.53453 6.60513 1.54101 9.0586 0.20347 4.92976 8.14418 3.56079 6.89649-1.2168-0.0982-1.76474-1.11571-10.3898 2.56445-6.9707 0.41881 3.53732-1.96245 11.618 4.0332 11.3398 5.1675-1.53918 2.40288-8.52584 2.76172-12.5078-0.93966-5.88202-8.3461-8.39783-12.9824-5.31836-2.9004-2.31159-6.33906-0.63177-9.45312-1.34375z"/>
 <path style="fill:#fff" d="m121.373 12.4663c-8.35951-0.28225-13.0406 11.2797-6.62305 16.7695 3.29182 3.72652 12.0778 4.11886 13.3398-1.50781-1.39298-2.61488 3.05215-1.49172 3.0254-4.28907 0.97858-5.58719-4.0713-11.2409-9.74219-10.9726z"/>
 <path style="fill:#fff" d="m133.055 7.03075c-4.32651 0.38685-2.82714 7.28779 1.36133 6.08984 5.40934 0.52686 1.08759 10.7848 2.47265 15.3359-0.0632 4.58025 7.31457 3.51376 6.10157-0.88672 1.49907-4.44168-3.45052-15.332 3.37304-14.4492 4.6778 0.22492 3.71361-7.30233-0.78515-6.09961-4.17424 0.008-8.35007-0.0145-12.5234 0.01z"/>
 <path style="fill:#fff" d="m150.219 12.8159c-5.56225 1.42265-1.8046 9.29112-2.89844 13.2363-1.86434 3.93016 3.85637 7.85212 5.90039 3.63282 0.86351-3.30594-1.81937-11.174 3.97461-10.6426 4.1424 2.51955 7.01585-5.00836 2.13086-5.75195-3.00739-1.672-6.08994 1.34071-8.73633-0.50782z"/>
 <path style="fill:#fff" d="m168.565 12.935c-8.06084 0.0237-12.076 11.3888-5.60937 16.3379 2.7334 2.97845 7.35952 2.26958 10.4707 1.64844 3.24183 2.33508 6.33223-2.24257 4.90625-5.33594 1.11588-6.25556-2.84376-13.0566-9.76758-12.6504zm0.40625 6.07422c5.18145-0.17263 3.44377 8.2477-1.17578 6.23242-3.24454-1.25326-2.25275-6.25567 1.17578-6.23242z"/>
 <path style="fill:#fff" d="m186.006 12.8823c-8.23468-0.34548-12.6582 11.3153-6.00781 16.3613 3.62723 3.71132 12.3734 3.01965 13.3809-2.5918-0.53727-4.04491-4.94685-2.6342-7.20313-1.19726-5.36781 0.2035-3.28672-8.48469 1.33008-6.14844 2.7333 3.7615 8.37201-1.26549 4.68945-4.10352-1.70619-1.47111-3.92304-2.36475-6.18945-2.32031z"/>
 <path style="fill:#fff" d="m194.893 7.04442c-5.34937 1.50394-1.62558 9.15251-2.72656 13.0195 0.27249 3.37717-2.01487 12.5703 4.1914 11.2441 3.80198-0.41239 0.23728-9.39601 3.17763-5.35195 1.42439 2.63502 6.10282 8.44476 8.70323 3.65078 1.96178-4.47296-9.04355-8.20902-2.01367-10.6484 4.05551-1.25646 1.81174-7.81879-2.07227-5.88281-4.11739 3.06863-7.39885 5.00394-5.87109-2.21484 0.42598-2.12363-1.23658-4.00952-3.38867-3.81641z"/>
 <path style="fill:#fff" d="m19.7834 6.65575c-5.81783 1.38967-2.12795 9.49556-3.16211 13.5801 0.0972 3.59157-1.82534 12.755 4.56641 11.541 2.32673-0.58245 2.71212-3.32842 2.39063-5.33789 0.25724 3.56824 4.85143 7.97412 7.65039 3.87891 1.39273-3.16312 1.82533-4.688 1.91211-0.70508 1.66436 4.72228 8.62238 1.39992 6.80078-3.11328-0.82681-6.11363 1.52582-13.0118-0.89063-18.7617-3.53564-3.42624-7.21611 1.73804-7.64376 5.11943-2.16653 7.39126-4.21521 7.6299-6.40414-0.18382-1.27664-2.26998-1.6529-6.40532-5.21968-6.01764z"/>
 <path d="m21.5793 17.0518v11.5185q0 1.15757-1.40052 1.40051h-0.10003q-1.18616 0-1.45768-1.47197v-18.2638q0.17149-1.5863 1.34335-1.5863h0.21436q1.18615 0 1.5863 1.68634l6.5595 14.6626q0.1286-0.5002 4.3159-10.0466l2.6867-5.78781q0.4859-0.51448 1.0575-0.51448h0.21436q1.17186 0 1.34336 1.5863v18.2639q-0.27153 1.47197-1.45768 1.47197h-0.1001q-1.4005-0.243-1.4005-1.4005v-11.5329q-5.31624 12.033-5.55919 12.4189-0.58593 0.51447-1.14328 0.51447-1.25761 0-2.07219-2.54379z"/>
 <path d="m42.0297 22.1251v0.1572q0 2.92965 2.94394 4.40163 0.91462 0.34298 1.64346 0.34298h0.41444q2.42947 0 4.01577-2.44376 0.57164-1.14328 0.57164-2.18652v-0.21436q0-2.81533-2.78674-4.31588-0.9575-0.42873-2.00074-0.42873h-0.0572q-2.95823 0-4.45878 3.08685-0.28582 0.94321-0.28582 1.60059zm9.60354 6.21658q-1.7435 1.62917-4.6017 1.62917h-0.41444q-3.94431 0-6.57385-3.94431-0.9575-1.91499-0.9575-3.84427 0-4.31588 4.23014-6.84538 1.80066-0.84317 3.51558-0.84317 4.38733 0 6.94542 4.28729 0.786 1.75779 0.786 3.61562v6.188q0 1.14328-1.40052 1.38622h-0.10003q-0.97179 0-1.44339-1.14328v-0.1572z"/>
 <path d="m64.7952 14.5366q2.98682 0 5.38771 2.24368 2.30084 2.41518 2.30084 5.43058 0 4.31588-4.07293 6.77392-1.78637 0.90034-3.44412 0.90034h-0.42873q-2.68671 0-4.48737-1.62918v6.33091q0 1.01466-1.44339 1.32906-1.14328 0-1.47197-1.44339v-11.79q0-5.78785 5.47344-7.80288 0.70026-0.22865 2.18652-0.34298zm-4.68744 7.51706v0.27153q0 2.64383 2.57238 4.1158 0.91462 0.4716 1.97215 0.4716h0.31441q2.75816 0 4.21584-2.85819 0.32869-0.88605 0.32869-1.72921v-0.27153q0-2.20081-2.02932-3.72995-1.20044-0.81459-2.72958-0.81459-3.00111 0-4.40162 3.1726-0.24295 0.75743-0.24295 1.37194z"/>
 <path d="m77.1426 9.24894h0.24294q1.32906 0.28582 1.32906 1.27189v4.2873h1.70063l0.4716-0.0572q1.10041 0 1.44339 1.4291 0 1.07183-1.2576 1.52914l-0.85746-0.0572h-1.50056v7.27412q0 1.71491 0.97179 2.04361l1.12899 0.10003h0.57164q1.04324 0 1.31477 1.38623v0.12862q-0.24295 1.38622-1.4291 1.38622h-1.10041q-2.77245 0-4.1158-3.0011-0.24295-0.75743-0.24295-1.72921v-7.58852h-0.60022l-0.91462 0.0572q-1.25761-0.44302-1.25761-1.51485 0.24295-1.38622 0.94321-1.38622v-0.10004l0.98608 0.10004h0.84316v-4.00148q0.1715-1.55771 1.32907-1.55771z"/>
 <path d="m85.9459 10.7352q1.41481 0.35727 1.41481 1.34335v0.3144q0 1.12899-1.52914 1.34335-1.1004 0-1.44339-1.50055 0.30011-1.50055 1.55772-1.50055zm0 3.65849q1.41481 0.35727 1.41481 1.34335v12.8333q0 1.15757-1.4291 1.40051h-0.0858q-1.17186 0-1.44339-1.45768v-12.4902q0.1715-1.62917 1.54343-1.62917z"/>
 <path d="m91.5479 14.7367q1.07182 0 1.37193 0.94321 1.15757-0.94321 3.35838-0.94321 2.91536 0 4.70174 2.17223 0.61451-1.14328 3.44412-2.00073l1.25761-0.1715q3.55845 0 5.60207 3.37268 0.68596 1.4148 0.68596 2.71528v7.83146q0 1.04324-1.38622 1.31477h-0.12862q-1.38623-0.24294-1.38623-1.4291v-7.6028q0-2.28656-2.40088-3.15831l-0.65739-0.0857h-0.50018q-1.9007 0-2.91536 2.22939-0.12862 0.4716-0.12862 0.8003v7.81716q-0.25724 1.4291-1.41481 1.4291h-0.10004q-1.38622-0.24294-1.38622-1.37193v-6.45953q0-2.50092-0.61451-3.07256-1.02895-1.37193-2.62954-1.37193h-0.15721q-2.20081 0-3.10114 2.3723-0.14291 0.57164-0.14291 1.55772v6.974q0 1.12899-1.38622 1.37193h-0.0857q-1.15757 0-1.4291-1.4291v-12.1904q0.1572-1.61489 1.52914-1.61489z"/>
 <path d="m121.445 14.4652q4.47307 0 6.94541 4.24442 0.85746 1.67204 0.85746 3.61562v0.3144q-0.25723 1.45768-1.44339 1.45768h-10.7039q0.41444 1.41481 2.32943 2.44376 1.12898 0.42873 2.11506 0.42873 1.14328 0 2.74387-0.8003h0.45731q1.34336 0.25724 1.34336 1.40052v0.1572q0 1.68633-4.24443 2.24368h-0.40014q-4.17297 0-6.68818-3.90144-1.01466-1.84353-1.01466-3.85856 0-4.25871 4.01576-6.77393 1.95787-0.97178 3.68708-0.97178zm-4.6017 6.68818h9.36059q0-0.52877-1.18615-2.12936-1.60059-1.51485-3.14401-1.51485h-0.58594q-2.34372 0-3.85856 2.31514-0.52877 0.91463-0.58593 1.32907z"/>
 <path d="m133.244 9.02028h13.3335q0.97178 0.18578 0.97178 0.97179v0.21436q0 0.78601-1.18615 0.91462h-5.37341v17.4493q0 0.80029-1.02895 0.97178h-0.0429q-0.82888 0-1.02895-1.08611v-17.335h-5.47345q-1.08611-0.21436-1.08611-1.07182 0.22865-1.02895 0.91462-1.02895z"/>
 <path d="m150.393 14.8081q1.02896 0.25724 1.02896 0.91462v1.18615q2.35801-2.10077 5.04471-2.10077 1.44339 0 3.07256 0.70026 0.42873 0.44302 0.42873 0.85746v0.0572q-0.17149 1.01466-1.01466 1.01466h-0.0572q-1.47197-0.4716-2.2151-0.4716h-0.3144q-3.15831 0-4.63028 3.27263-0.3144 0.87175-0.3144 1.98645v6.3452q0 0.80029-1.02896 0.97178h-0.0572q-0.81459 0-1.01466-1.07182v-12.4189q0.12862-1.24331 1.07182-1.24331z"/>
 <path d="m169.029 14.9225q4.14438 0 6.55956 4.05864 0.74313 1.64346 0.74313 3.41554v6.188q0 0.786-1.01466 0.95749h-0.0572q-0.68597 0-1.01466-0.80029v-0.0572l0.0572-1.32906v-0.0572q-2.35801 2.24368-5.0733 2.24368h-0.41444q-3.71565 0-6.20228-3.72994-0.90034-1.80067-0.90034-3.62991 0-4.07293 4.00148-6.45953 1.70063-0.80029 3.31551-0.80029zm-5.2305 7.20265v0.1572q0 3.18689 3.20118 4.80177 1.01466 0.37157 1.81495 0.37157h0.41444q2.65812 0 4.38733-2.65812 0.62881-1.25761 0.62881-2.40089v-0.21436q0-3.07257-3.02969-4.70174-1.05753-0.4716-2.18652-0.4716h-0.0572q-3.22976 0-4.85893 3.35838-0.3144 1.04324-0.3144 1.75779z"/>
 <path d="m186.078 14.8796q2.82962 0 5.14476 2.12936 0.1572 0.28582 0.1572 0.54306v0.0572q-0.18579 1.01466-1.01466 1.01466h-0.0572q-0.38585 0-1.71492-1.01466-1.18615-0.60022-2.35801-0.60022h-0.3144q-3.11543 0-4.71602 3.27264-0.37157 1.1004-0.37157 1.98644 0 3.1726 3.27264 4.81606 0.98607 0.37157 2.08648 0.37157 1.84354 0 3.62991-1.50055l0.42873-0.10004h0.17149q0.786 0 0.9575 1.01466v0.0429q0 1.10041-3.42984 2.41518-1.15757 0.21436-1.71492 0.21436h-0.42873q-2.95823 0-5.50203-2.78674-1.55771-2.20081-1.55771-4.54453 0-3.57275 3.1583-6.00221 2.01503-1.32907 4.17297-1.32907z"/>
 <path d="m195.081 9.03457h0.21436q0.98608 0.21437 0.98608 0.87175v10.6611q7.64568-5.05901 8.91757-5.78785h0.27153q0.85746 0 1.02895 1.12898 0 0.65739-1.72921 1.57201-4.20154 2.84391-4.38733 2.87249v0.0429l6.05938 7.68855 0.0572 0.3287v0.0429q-0.18578 1.02895-1.02895 1.02895h-0.10003q-0.62881 0-1.90071-1.82925l-4.87322-6.05937h-0.0429l-2.27227 1.45768v5.51632q0 0.80029-1.02895 0.97178h-0.0572q-0.77172 0-1.02896-0.97178v-18.5068q0.21437-1.02895 0.91463-1.02895z"/>
 <g aria-label="Foss4gNL" transform="translate(406.025 -265.608)">
  <path d="m-395.003 304.199 0.25081 0.053h3.55464l0.0724-0.0193q0.4582 0 0.53055 0.54984-0.10129 0.47266-0.54502 0.47266h-3.20738v2.18006h2.04501l0.26045-0.0193q0.36655 0 0.47749 0.49678 0 0.35209-0.41479 0.52572l-0.3955-0.0193h-1.97266v2.4405l0.0241 0.13023q-0.11575 0.48714-0.49678 0.48714h-0.0531q-0.47749-0.0868-0.47749-0.49196v-6.25079q0.0723-0.48231 0.34726-0.48231z" style="stroke-width:.731698"/>
  <path d="m-387.591 306.277q1.00804 0 1.82315 0.76205 0.77652 0.81511 0.77652 1.83762 0 1.46141-1.37942 2.29581-0.60289 0.30386-1.16719 0.30386h-0.1447q-1.05144 0-1.95337-0.98392-0.55466-0.78135-0.55466-1.61575 0-1.26849 1.11897-2.12218 0.71382-0.47749 1.4807-0.47749zm-1.59163 2.54661v0.0868q0 0.90192 0.87298 1.39871 0.30868 0.15916 0.6656 0.15916h0.10611q0.93086 0 1.42764-0.96945 0.11094-0.29903 0.11094-0.58842v-0.0868q0-0.74758-0.68971-1.26366-0.40032-0.27492-0.92122-0.27492-1.01768 0-1.49517 1.07074-0.0772 0.2508-0.0772 0.46784z" style="stroke-width:.731698"/>
  <path d="m-380.903 309.755q-0.005-0.0965-0.19775-0.11576-2.4405-0.54501-2.60449-0.69453-0.49678-0.3762-0.49678-0.93086 0-0.75241 1.05144-1.42765 0.57878-0.30386 1.14308-0.30386 1.32154 0 2.08842 1.22025l0.0193 0.17846v0.0289q0 0.40996-0.49196 0.48231-0.32797 0-0.60771-0.46302-0.43891-0.42926-1.00804-0.42926-0.74276 0-1.16237 0.69453l-0.01 0.0482q0 0.0965 0.41479 0.13023 2.07395 0.5016 2.29099 0.5836 0.59324 0.39067 0.59324 0.98874v0.0145q0 0.82476-1.16719 1.49035-0.50643 0.22669-1.06592 0.22669-1.15755 0-1.95337-1.08039-0.10128-0.14469-0.10128-0.27974v-0.10611q0-0.39067 0.53054-0.44855 0.25563 0 0.60289 0.49678 0.42444 0.3955 0.99357 0.3955 0.67524 0 1.11897-0.63183z" style="stroke-width:.731698"/>
  <path d="m-375.705 309.755q-0.005-0.0965-0.19775-0.11576-2.4405-0.54501-2.60449-0.69453-0.49678-0.3762-0.49678-0.93086 0-0.75241 1.05144-1.42765 0.57877-0.30386 1.14308-0.30386 1.32154 0 2.08842 1.22025l0.0193 0.17846v0.0289q0 0.40996-0.49196 0.48231-0.32797 0-0.60771-0.46302-0.43891-0.42926-1.00804-0.42926-0.74276 0-1.16237 0.69453l-0.01 0.0482q0 0.0965 0.41479 0.13023 2.07395 0.5016 2.29099 0.5836 0.59324 0.39067 0.59324 0.98874v0.0145q0 0.82476-1.16719 1.49035-0.50643 0.22669-1.06592 0.22669-1.15755 0-1.95337-1.08039-0.10128-0.14469-0.10128-0.27974v-0.10611q0-0.39067 0.53054-0.44855 0.25563 0 0.60289 0.49678 0.42444 0.3955 0.99357 0.3955 0.67524 0 1.11897-0.63183z" style="stroke-width:.731698"/>
  <path d="m-370.295 304.314h0.11093q0.29904 0 0.4582 0.43408l-0.0241 0.2074v3.47265h0.41479l0.16399-0.0145q0.36656 0 0.49196 0.48713 0 0.36656-0.43408 0.52572l-0.29421-0.0193h-0.34245v1.61575q0 0.35209-0.47266 0.45338h-0.0482q-0.47749-0.0868-0.47749-0.48714v-1.58199h-2.29581l-0.47266 0.0193q-0.38586-0.16398-0.38586-0.47266v-0.0723q0-0.19775 0.22187-0.37138 2.88906-3.75722 3.05304-4.01285 0.16881-0.18328 0.3328-0.18328zm-2.0643 4.11413h1.61092v-2.09806z" style="stroke-width:.731698"/>
  <path d="m-365.425 306.263q1.16237 0 2.01124 0.96462 0.58843 0.80547 0.58843 1.52894l-0.0193 0.60771v2.16559q0 0.68006-0.99356 1.44212-0.75723 0.49678-1.58681 0.49678-1.41801 0-2.34405-1.26366-0.18328-0.30868-0.18328-0.43891v-0.0531q0-0.35209 0.45338-0.45338h0.0675q0.34245 0 0.53537 0.5209 0.58842 0.73794 1.47106 0.73794 1.05626 0 1.58198-0.94533l0.0289-0.19293v-0.46784q-0.59324 0.54984-1.55787 0.54984h-0.14469q-1.05145 0-1.95337-0.98392-0.55466-0.78135-0.55466-1.61575 0-1.26849 1.11896-2.12218 0.71383-0.47749 1.48071-0.47749zm-1.61093 2.54661v0.0868q0 1.00321 1.05627 1.49517 0.27491 0.082 0.5016 0.082h0.10611q0.9791 0 1.4807-1.05144 0.0772-0.3135 0.0772-0.48714v-0.111q0-0.99839-1.06591-1.49517-0.3328-0.0772-0.51125-0.0772h-0.0675q-0.97909 0-1.4807 1.03697-0.0965 0.28457-0.0965 0.5209z" style="stroke-width:.731698"/>
  <path d="m-357.188 309.528v-4.78455q0.0868-0.4582 0.47267-0.4582h0.0531q0.39068 0 0.47267 0.47267v6.2122q0 0.41961-0.51608 0.50643-0.29421 0-0.76205-0.69454l-3.53536-4.51445v4.71703q0 0.39067-0.48231 0.47266h-0.0241q-0.40032 0-0.49196-0.49196v-6.14467q0.0579-0.53537 0.45338-0.53537h0.0723q0.32315 0 0.5209 0.42444 0.25563 0.28939 3.76687 4.81831z" style="stroke-width:.731698"/>
  <path d="m-354.826 304.276h0.0868q0.4582 0.0965 0.4582 0.43408v5.76847h2.83118q0.41961 0 0.49678 0.53536-0.13987 0.46303-0.49678 0.46303h-3.33761q-0.40032 0-0.49196-0.49679v-6.16879q0.0579-0.53536 0.45338-0.53536z" style="stroke-width:.731698"/>
 </g>
 <g aria-label="Foss4gNL" transform="translate(406.025 -265.608)">
  <path d="m-349.086 304.199 0.25081 0.053h3.55465l0.0723-0.0193q0.4582 0 0.53055 0.54984-0.10129 0.47266-0.54502 0.47266h-3.20738v2.18006h2.04501l0.26045-0.0193q0.36656 0 0.47749 0.49678 0 0.35209-0.41479 0.52572l-0.3955-0.0193h-1.97266v2.4405l0.0241 0.13023q-0.11576 0.48714-0.49679 0.48714h-0.053q-0.47749-0.0868-0.47749-0.49196v-6.25079q0.0723-0.48231 0.34726-0.48231z" style="stroke-width:.731698"/>
  <path d="m-341.674 306.277q1.00804 0 1.82315 0.76205 0.77652 0.81511 0.77652 1.83762 0 1.46141-1.37942 2.29581-0.60289 0.30386-1.16719 0.30386h-0.1447q-1.05144 0-1.95337-0.98392-0.55466-0.78135-0.55466-1.61575 0-1.26849 1.11897-2.12218 0.71382-0.47749 1.4807-0.47749zm-1.59163 2.54661v0.0868q0 0.90192 0.87299 1.39871 0.30868 0.15916 0.66559 0.15916h0.10611q0.93086 0 1.42764-0.96945 0.11094-0.29903 0.11094-0.58842v-0.0868q0-0.74758-0.68971-1.26366-0.40032-0.27492-0.92122-0.27492-1.01768 0-1.49517 1.07074-0.0772 0.2508-0.0772 0.46784z" style="stroke-width:.731698"/>
  <path d="m-334.986 309.755q-0.005-0.0965-0.19775-0.11576-2.4405-0.54501-2.60449-0.69453-0.49678-0.3762-0.49678-0.93086 0-0.75241 1.05144-1.42765 0.57878-0.30386 1.14308-0.30386 1.32154 0 2.08842 1.22025l0.0193 0.17846v0.0289q0 0.40996-0.49196 0.48231-0.32797 0-0.60771-0.46302-0.43891-0.42926-1.00804-0.42926-0.74276 0-1.16237 0.69453l-0.01 0.0482q0 0.0965 0.41479 0.13023 2.07395 0.5016 2.29099 0.5836 0.59324 0.39067 0.59324 0.98874v0.0145q0 0.82476-1.16719 1.49035-0.50643 0.22669-1.06592 0.22669-1.15755 0-1.95337-1.08039-0.10128-0.14469-0.10128-0.27974v-0.10611q0-0.39067 0.53054-0.44855 0.25563 0 0.6029 0.49678 0.42443 0.3955 0.99356 0.3955 0.67524 0 1.11897-0.63183z" style="stroke-width:.731698"/>
  <path d="m-329.788 309.755q-0.005-0.0965-0.19775-0.11576-2.4405-0.54501-2.60449-0.69453-0.49678-0.3762-0.49678-0.93086 0-0.75241 1.05144-1.42765 0.57878-0.30386 1.14308-0.30386 1.32154 0 2.08842 1.22025l0.0193 0.17846v0.0289q0 0.40996-0.49196 0.48231-0.32797 0-0.60771-0.46302-0.43891-0.42926-1.00804-0.42926-0.74276 0-1.16237 0.69453l-0.01 0.0482q0 0.0965 0.41479 0.13023 2.07395 0.5016 2.29099 0.5836 0.59324 0.39067 0.59324 0.98874v0.0145q0 0.82476-1.16719 1.49035-0.50643 0.22669-1.06592 0.22669-1.15755 0-1.95337-1.08039-0.10128-0.14469-0.10128-0.27974v-0.10611q0-0.39067 0.53054-0.44855 0.25563 0 0.6029 0.49678 0.42443 0.3955 0.99356 0.3955 0.67524 0 1.11897-0.63183z" style="stroke-width:.731698"/>
  <path d="m-324.378 304.314h0.11093q0.29904 0 0.4582 0.43408l-0.0241 0.2074v3.47265h0.41479l0.16399-0.0145q0.36656 0 0.49196 0.48713 0 0.36656-0.43408 0.52572l-0.29421-0.0193h-0.34245v1.61575q0 0.35209-0.47266 0.45338h-0.0482q-0.47749-0.0868-0.47749-0.48714v-1.58199h-2.29582l-0.47266 0.0193q-0.38585-0.16398-0.38585-0.47266v-0.0723q0-0.19775 0.22186-0.37138 2.88906-3.75722 3.05304-4.01285 0.16881-0.18328 0.3328-0.18328zm-2.0643 4.11413h1.61093v-2.09806z" style="stroke-width:.731698"/>
  <path d="m-319.508 306.263q1.16237 0 2.01124 0.96462 0.58843 0.80547 0.58843 1.52894l-0.0193 0.60771v2.16559q0 0.68006-0.99356 1.44212-0.75723 0.49678-1.58681 0.49678-1.418 0-2.34405-1.26366-0.18327-0.30868-0.18327-0.43891v-0.0531q0-0.35209 0.45337-0.45338h0.0675q0.34245 0 0.53537 0.5209 0.58842 0.73794 1.47106 0.73794 1.05626 0 1.58199-0.94533l0.0289-0.19293v-0.46784q-0.59324 0.54984-1.55787 0.54984h-0.14469q-1.05145 0-1.95337-0.98392-0.55466-0.78135-0.55466-1.61575 0-1.26849 1.11897-2.12218 0.71382-0.47749 1.4807-0.47749zm-1.61093 2.54661v0.0868q0 1.00321 1.05627 1.49517 0.27492 0.082 0.5016 0.082h0.10611q0.9791 0 1.4807-1.05144 0.0772-0.3135 0.0772-0.48714v-0.111q0-0.99839-1.06591-1.49517-0.33279-0.0772-0.51125-0.0772h-0.0675q-0.9791 0-1.48071 1.03697-0.0965 0.28457-0.0965 0.5209z" style="stroke-width:.731698"/>
  <path d="m-311.271 309.528v-4.78455q0.0868-0.4582 0.47267-0.4582h0.053q0.39068 0 0.47267 0.47267v6.2122q0 0.41961-0.51608 0.50643-0.29421 0-0.76205-0.69454l-3.53536-4.51445v4.71703q0 0.39067-0.48231 0.47266h-0.0241q-0.40032 0-0.49196-0.49196v-6.14467q0.0579-0.53537 0.45338-0.53537h0.0723q0.32315 0 0.52089 0.42444 0.25563 0.28939 3.76687 4.81831z" style="stroke-width:.731698"/>
  <path d="m-308.91 304.276h0.0868q0.4582 0.0965 0.4582 0.43408v5.76847h2.83117q0.41962 0 0.49679 0.53536-0.13987 0.46303-0.49679 0.46303h-3.3376q-0.40032 0-0.49196-0.49679v-6.16879q0.0579-0.53536 0.45337-0.53536z" style="stroke-width:.731698"/>
 </g>
 <g aria-label="Foss4gNL" transform="translate(406.025 -265.608)">
  <path d="m-303.169 304.199 0.25081 0.053h3.55465l0.0723-0.0193q0.4582 0 0.53055 0.54984-0.10129 0.47266-0.54502 0.47266h-3.20738v2.18006h2.04501l0.26045-0.0193q0.36656 0 0.47749 0.49678 0 0.35209-0.41479 0.52572l-0.3955-0.0193h-1.97266v2.4405l0.0241 0.13023q-0.11576 0.48714-0.49679 0.48714h-0.053q-0.47749-0.0868-0.47749-0.49196v-6.25079q0.0724-0.48231 0.34726-0.48231z" style="stroke-width:.731698"/>
  <path d="m-295.758 306.277q1.00804 0 1.82315 0.76205 0.77652 0.81511 0.77652 1.83762 0 1.46141-1.37941 2.29581-0.6029 0.30386-1.1672 0.30386h-0.1447q-1.05144 0-1.95337-0.98392-0.55466-0.78135-0.55466-1.61575 0-1.26849 1.11897-2.12218 0.71382-0.47749 1.4807-0.47749zm-1.59163 2.54661v0.0868q0 0.90192 0.87299 1.39871 0.30868 0.15916 0.66559 0.15916h0.10611q0.93086 0 1.42765-0.96945 0.11093-0.29903 0.11093-0.58842v-0.0868q0-0.74758-0.68971-1.26366-0.40032-0.27492-0.92122-0.27492-1.01768 0-1.49517 1.07074-0.0772 0.2508-0.0772 0.46784z" style="stroke-width:.731698"/>
  <path d="m-289.069 309.755q-0.005-0.0965-0.19775-0.11576-2.4405-0.54501-2.60449-0.69453-0.49678-0.3762-0.49678-0.93086 0-0.75241 1.05144-1.42765 0.57878-0.30386 1.14308-0.30386 1.32154 0 2.08842 1.22025l0.0193 0.17846v0.0289q0 0.40996-0.49196 0.48231-0.32797 0-0.60771-0.46302-0.43891-0.42926-1.00804-0.42926-0.74276 0-1.16237 0.69453l-0.01 0.0482q0 0.0965 0.41479 0.13023 2.07395 0.5016 2.29099 0.5836 0.59325 0.39067 0.59325 0.98874v0.0145q0 0.82476-1.1672 1.49035-0.50643 0.22669-1.06591 0.22669-1.15756 0-1.95337-1.08039-0.10129-0.14469-0.10129-0.27974v-0.10611q0-0.39067 0.53054-0.44855 0.25563 0 0.6029 0.49678 0.42443 0.3955 0.99356 0.3955 0.67524 0 1.11897-0.63183z" style="stroke-width:.731698"/>
  <path d="m-283.871 309.755q-0.005-0.0965-0.19775-0.11576-2.4405-0.54501-2.60449-0.69453-0.49678-0.3762-0.49678-0.93086 0-0.75241 1.05144-1.42765 0.57878-0.30386 1.14308-0.30386 1.32154 0 2.08842 1.22025l0.0193 0.17846v0.0289q0 0.40996-0.49196 0.48231-0.32797 0-0.60771-0.46302-0.43891-0.42926-1.00804-0.42926-0.74276 0-1.16237 0.69453l-0.01 0.0482q0 0.0965 0.41479 0.13023 2.07395 0.5016 2.29099 0.5836 0.59325 0.39067 0.59325 0.98874v0.0145q0 0.82476-1.1672 1.49035-0.50643 0.22669-1.06591 0.22669-1.15756 0-1.95337-1.08039-0.10129-0.14469-0.10129-0.27974v-0.10611q0-0.39067 0.53054-0.44855 0.25563 0 0.6029 0.49678 0.42443 0.3955 0.99356 0.3955 0.67524 0 1.11897-0.63183z" style="stroke-width:.731698"/>
  <path d="m-278.461 304.314h0.11093q0.29904 0 0.4582 0.43408l-0.0241 0.2074v3.47265h0.41478l0.16399-0.0145q0.36656 0 0.49196 0.48713 0 0.36656-0.43408 0.52572l-0.29421-0.0193h-0.34244v1.61575q0 0.35209-0.47267 0.45338h-0.0482q-0.47749-0.0868-0.47749-0.48714v-1.58199h-2.29581l-0.47267 0.0193q-0.38585-0.16398-0.38585-0.47266v-0.0723q0-0.19775 0.22186-0.37138 2.88906-3.75722 3.05305-4.01285 0.1688-0.18328 0.33279-0.18328zm-2.0643 4.11413h1.61093v-2.09806z" style="stroke-width:.731698"/>
  <path d="m-273.591 306.263q1.16237 0 2.01125 0.96462 0.58842 0.80547 0.58842 1.52894l-0.0193 0.60771v2.16559q0 0.68006-0.99357 1.44212-0.75723 0.49678-1.58681 0.49678-1.418 0-2.34404-1.26366-0.18328-0.30868-0.18328-0.43891v-0.0531q0-0.35209 0.45337-0.45338h0.0675q0.34245 0 0.53537 0.5209 0.58843 0.73794 1.47106 0.73794 1.05626 0 1.58199-0.94533l0.0289-0.19293v-0.46784q-0.59325 0.54984-1.55788 0.54984h-0.14469q-1.05144 0-1.95337-0.98392-0.55466-0.78135-0.55466-1.61575 0-1.26849 1.11897-2.12218 0.71382-0.47749 1.4807-0.47749zm-1.61093 2.54661v0.0868q0 1.00321 1.05627 1.49517 0.27492 0.082 0.5016 0.082h0.10611q0.9791 0 1.48071-1.05144 0.0772-0.3135 0.0772-0.48714v-0.111q0-0.99839-1.06592-1.49517-0.33279-0.0772-0.51125-0.0772h-0.0675q-0.9791 0-1.48071 1.03697-0.0965 0.28457-0.0965 0.5209z" style="stroke-width:.731698"/>
  <path d="m-265.355 309.528v-4.78455q0.0868-0.4582 0.47267-0.4582h0.053q0.39068 0 0.47267 0.47267v6.2122q0 0.41961-0.51607 0.50643-0.29422 0-0.76206-0.69454l-3.53536-4.51445v4.71703q0 0.39067-0.48231 0.47266h-0.0241q-0.40032 0-0.49196-0.49196v-6.14467q0.0579-0.53537 0.45338-0.53537h0.0724q0.32315 0 0.52089 0.42444 0.25563 0.28939 3.76687 4.81831z" style="stroke-width:.731698"/>
  <path d="m-262.993 304.276h0.0868q0.4582 0.0965 0.4582 0.43408v5.76847h2.83118q0.41961 0 0.49678 0.53536-0.13987 0.46303-0.49678 0.46303h-3.33761q-0.40032 0-0.49196-0.49679v-6.16879q0.0579-0.53536 0.45337-0.53536z" style="stroke-width:.731698"/>
 </g>
 <path d="m148.773 38.5904 0.2508 0.053h3.55465l0.0724-0.0193q0.45819 0 0.53054 0.54984-0.10129 0.47266-0.54501 0.47266h-3.20739v2.18006h2.04501l0.26045-0.0193q0.36656 0 0.47749 0.49678 0 0.35209-0.41479 0.52572l-0.3955-0.0193h-1.97266v2.4405l0.0241 0.13023q-0.11576 0.48714-0.49678 0.48714h-0.0531q-0.47749-0.0868-0.47749-0.49196v-6.25079q0.0723-0.48231 0.34727-0.48231z"/>
 <path d="m156.185 40.6692q1.00804 0 1.82315 0.76205 0.77652 0.81511 0.77652 1.83762 0 1.46141-1.37941 2.29581-0.60289 0.30386-1.1672 0.30386h-0.14469q-1.05145 0-1.95337-0.98392-0.55466-0.78135-0.55466-1.61575 0-1.26849 1.11896-2.12218 0.71383-0.47749 1.4807-0.47749zm-1.59163 2.54661v0.0868q0 0.90192 0.87299 1.39871 0.30868 0.15916 0.66559 0.15916h0.10611q0.93086 0 1.42765-0.96945 0.11093-0.29903 0.11093-0.58842v-0.0868q0-0.74758-0.68971-1.26366-0.40032-0.27492-0.92122-0.27492-1.01768 0-1.49517 1.07074-0.0772 0.2508-0.0772 0.46784z"/>
 <path d="m162.873 44.1467q-0.005-0.0965-0.19775-0.11576-2.4405-0.54501-2.60449-0.69453-0.49678-0.3762-0.49678-0.93086 0-0.75241 1.05144-1.42765 0.57878-0.30386 1.14309-0.30386 1.32153 0 2.08841 1.22025l0.0193 0.17846v0.0289q0 0.40996-0.49196 0.48231-0.32798 0-0.60772-0.46302-0.4389-0.42926-1.00803-0.42926-0.74277 0-1.16238 0.69453l-0.01 0.0482q0 0.0965 0.41479 0.13023 2.07395 0.5016 2.29099 0.5836 0.59325 0.39067 0.59325 0.98874v0.0145q0 0.82476-1.1672 1.49035-0.50643 0.22669-1.06591 0.22669-1.15756 0-1.95337-1.08039-0.10129-0.14469-0.10129-0.27974v-0.10611q0-0.39067 0.53055-0.44855 0.25562 0 0.60289 0.49678 0.42443 0.3955 0.99356 0.3955 0.67524 0 1.11897-0.63183z"/>
 <path d="m168.071 44.1467q-0.005-0.0965-0.19775-0.11576-2.4405-0.54501-2.60449-0.69453-0.49678-0.3762-0.49678-0.93086 0-0.75241 1.05144-1.42765 0.57878-0.30386 1.14309-0.30386 1.32153 0 2.08841 1.22025l0.0193 0.17846v0.0289q0 0.40996-0.49196 0.48231-0.32798 0-0.60772-0.46302-0.4389-0.42926-1.00803-0.42926-0.74277 0-1.16238 0.69453l-0.01 0.0482q0 0.0965 0.41479 0.13023 2.07395 0.5016 2.29099 0.5836 0.59325 0.39067 0.59325 0.98874v0.0145q0 0.82476-1.1672 1.49035-0.50643 0.22669-1.06591 0.22669-1.15756 0-1.95337-1.08039-0.10129-0.14469-0.10129-0.27974v-0.10611q0-0.39067 0.53055-0.44855 0.25562 0 0.60289 0.49678 0.42443 0.3955 0.99356 0.3955 0.67524 0 1.11897-0.63183z"/>
 <path d="m173.481 38.7062h0.11094q0.29903 0 0.45819 0.43408l-0.0241 0.2074v3.47265h0.41479l0.16398-0.0145q0.36656 0 0.49196 0.48713 0 0.36656-0.43408 0.52572l-0.29421-0.0193h-0.34244v1.61575q0 0.35209-0.47267 0.45338h-0.0482q-0.47749-0.0868-0.47749-0.48714v-1.58199h-2.29581l-0.47267 0.0193q-0.38585-0.16398-0.38585-0.47266v-0.0723q0-0.19775 0.22186-0.37138 2.88906-3.75722 3.05305-4.01285 0.16881-0.18328 0.33279-0.18328zm-2.0643 4.11413h1.61093v-2.09806z"/>
 <path d="m178.351 40.6547q1.16238 0 2.01125 0.96462 0.58842 0.80547 0.58842 1.52894l-0.0193 0.60771v2.16559q0 0.68006-0.99357 1.44212-0.75723 0.49678-1.58681 0.49678-1.418 0-2.34404-1.26366-0.18328-0.30868-0.18328-0.43891v-0.0531q0-0.35209 0.45337-0.45338h0.0675q0.34244 0 0.53536 0.5209 0.58843 0.73794 1.47106 0.73794 1.05627 0 1.58199-0.94533l0.0289-0.19293v-0.4678q-0.592 0.5498-1.557 0.5498h-0.14469q-1.05144 0-1.95337-0.98392-0.55466-0.78135-0.55466-1.61575 0-1.26849 1.11897-2.12218 0.71382-0.47749 1.4807-0.47749zm-1.61093 2.54661v0.0868q0 1.00321 1.05627 1.49517 0.27492 0.082 0.50161 0.082h0.1061q0.9791 0 1.48071-1.05144 0.0772-0.3135 0.0772-0.48714v-0.11092q0-0.99839-1.06592-1.49517-0.33279-0.0772-0.51125-0.0772h-0.0675q-0.9791 0-1.4807 1.03697-0.0965 0.28457-0.0965 0.5209z"/>
 <path d="m186.588 43.92v-4.78455q0.0868-0.4582 0.47267-0.4582h0.0531q0.39067 0 0.47266 0.47267v6.2122q0 0.41961-0.51607 0.50643-0.29421 0-0.76206-0.69454l-3.53535-4.51445v4.71703q0 0.39067-0.48232 0.47266h-0.0241q-0.40032 0-0.49196-0.49196v-6.14467q0.0579-0.53537 0.45337-0.53537h0.0724q0.32315 0 0.5209 0.42444 0.25562 0.28939 3.76686 4.81831z"/>
 <path d="m188.95 38.6676h0.0868q0.4582 0.0965 0.4582 0.43408v5.76847h2.83118q0.41961 0 0.49678 0.53536-0.13987 0.46303-0.49678 0.46303h-3.33761q-0.40032 0-0.49196-0.49679v-6.16879q0.0579-0.53536 0.45337-0.53536z"/>
 <path d="m194.69 38.5904 0.2508 0.053h3.55465l0.0724-0.0193q0.4582 0 0.53055 0.54984-0.10129 0.47266-0.54502 0.47266h-3.20738v2.18006h2.04501l0.26045-0.0193q0.36655 0 0.47749 0.49678 0 0.35209-0.41479 0.52572l-0.3955-0.0193h-1.97266v2.4405l0.0241 0.13023q-0.11575 0.48714-0.49678 0.48714h-0.0531q-0.47749-0.0868-0.47749-0.49196v-6.25079q0.0723-0.48231 0.34726-0.48231z"/>
 <path d="m202.101 40.6692q1.00803 0 1.82314 0.76205 0.77653 0.81511 0.77653 1.83762 0 1.46141-1.37942 2.29581-0.60289 0.30386-1.1672 0.30386h-0.14469q-1.05144 0-1.95337-0.98392-0.55466-0.78135-0.55466-1.61575 0-1.26849 1.11897-2.12218 0.71382-0.47749 1.4807-0.47749zm-1.59163 2.54661v0.0868q0 0.90192 0.87298 1.39871 0.30868 0.15916 0.6656 0.15916h0.1061q0.93087 0 1.42765-0.96945 0.11093-0.29903 0.11093-0.58842v-0.0868q0-0.74758-0.6897-1.26366-0.40032-0.27492-0.92122-0.27492-1.01768 0-1.49517 1.07074-0.0772 0.2508-0.0772 0.46784z"/>
 <path d="m208.79 44.1467q-0.005-0.0965-0.19775-0.11576-2.44051-0.54501-2.60449-0.69453-0.49679-0.3762-0.49679-0.93086 0-0.75241 1.05145-1.42765 0.57877-0.30386 1.14308-0.30386 1.32154 0 2.08842 1.22025l0.0193 0.17846v0.0289q0 0.40996-0.49196 0.48231-0.32797 0-0.60771-0.46302-0.43891-0.42926-1.00804-0.42926-0.74276 0-1.16237 0.69453l-0.01 0.0482q0 0.0965 0.41479 0.13023 2.07395 0.5016 2.29099 0.5836 0.59324 0.39067 0.59324 0.98874v0.0145q0 0.82476-1.1672 1.49035-0.50642 0.22669-1.06591 0.22669-1.15755 0-1.95337-1.08039-0.10128-0.14469-0.10128-0.27974v-0.10611q0-0.39067 0.53054-0.44855 0.25563 0 0.60289 0.49678 0.42444 0.3955 0.99357 0.3955 0.67524 0 1.11897-0.63183z"/>
 <path d="m213.988 44.1467q-0.005-0.0965-0.19775-0.11576-2.44051-0.54501-2.60449-0.69453-0.49679-0.3762-0.49679-0.93086 0-0.75241 1.05145-1.42765 0.57877-0.30386 1.14308-0.30386 1.32154 0 2.08842 1.22025l0.0193 0.17846v0.0289q0 0.40996-0.49196 0.48231-0.32797 0-0.60771-0.46302-0.43891-0.42926-1.00804-0.42926-0.74276 0-1.16237 0.69453l-0.01 0.0482q0 0.0965 0.41479 0.13023 2.07395 0.5016 2.29099 0.5836 0.59324 0.39067 0.59324 0.98874v0.0145q0 0.82476-1.1672 1.49035-0.50642 0.22669-1.06591 0.22669-1.15755 0-1.95337-1.08039-0.10128-0.14469-0.10128-0.27974v-0.10611q0-0.39067 0.53054-0.44855 0.25563 0 0.60289 0.49678 0.42444 0.3955 0.99357 0.3955 0.67524 0 1.11897-0.63183z"/>
 <path d="m219.398 38.7062h0.11093q0.29903 0 0.4582 0.43408l-0.0241 0.2074v3.47265h0.41479l0.16399-0.0145q0.36656 0 0.49196 0.48713 0 0.36656-0.43408 0.52572l-0.29422-0.0193h-0.34244v1.61575q0 0.35209-0.47267 0.45338h-0.0482q-0.47749-0.0868-0.47749-0.48714v-1.58199h-2.29581l-0.47267 0.0193q-0.38585-0.16398-0.38585-0.47266v-0.0723q0-0.19775 0.22187-0.37138 2.88906-3.75722 3.05304-4.01285 0.16881-0.18328 0.3328-0.18328zm-2.0643 4.11413h1.61092v-2.09806z"/>
 <path d="m224.268 40.6547q1.16237 0 2.01124 0.96462 0.58842 0.80547 0.58842 1.52894l-0.0193 0.60771v2.16559q0 0.68006-0.99356 1.44212-0.75724 0.49678-1.58681 0.49678-1.41801 0-2.34405-1.26366-0.18328-0.30868-0.18328-0.43891v-0.0531q0-0.35209 0.45338-0.45338h0.0675q0.34244 0 0.53537 0.5209 0.58842 0.73794 1.47106 0.73794 1.05626 0 1.58198-0.94533l0.0289-0.19293v-0.4678q-0.593 0.5498-1.558 0.5498h-0.14469q-1.05145 0-1.95337-0.98392-0.55466-0.78135-0.55466-1.61575 0-1.26849 1.11896-2.12218 0.71383-0.47749 1.48071-0.47749zm-1.61093 2.54661v0.0868q0 1.00321 1.05626 1.49517 0.27492 0.082 0.50161 0.082h0.10611q0.9791 0 1.4807-1.05144 0.0772-0.3135 0.0772-0.48714v-0.11092q0-0.99839-1.06591-1.49517-0.3328-0.0772-0.51125-0.0772h-0.0675q-0.97909 0-1.4807 1.03697-0.0965 0.28457-0.0965 0.5209z"/>
 <path d="m232.504 43.92v-4.78455q0.0868-0.4582 0.47267-0.4582h0.053q0.39067 0 0.47267 0.47267v6.2122q0 0.41961-0.51608 0.50643-0.29421 0-0.76205-0.69454l-3.53536-4.51445v4.71703q0 0.39067-0.48231 0.47266h-0.0241q-0.40032 0-0.49196-0.49196v-6.14467q0.0579-0.53537 0.45338-0.53537h0.0723q0.32315 0 0.5209 0.42444 0.25563 0.28939 3.76687 4.81831z"/>
 <path d="m234.866 38.6676h0.0868q0.45819 0.0965 0.45819 0.43408v5.76847h2.83118q0.41961 0 0.49679 0.53536-0.13988 0.46303-0.49679 0.46303h-3.33761q-0.40032 0-0.49196-0.49679v-6.16879q0.0579-0.53536 0.45338-0.53536z"/>
</svg>
