<svg width="158" height="47" viewBox="0 0 158 47" fill="none" xmlns="http://www.w3.org/2000/svg">
<g clip-path="url(#clip0)">
<path d="M45.1277 11.419C45.0172 11.419 44.9436 11.349 44.9436 11.2438V0.837784C44.9436 0.732672 45.0172 0.662598 45.1277 0.662598H49.3617C51.5708 0.662598 53.0803 1.99401 53.0803 3.99113C53.0803 5.98826 51.5708 7.35471 49.3617 7.35471H47.0054C46.9318 7.35471 46.8949 7.38975 46.8949 7.45982V11.2789C46.8949 11.384 46.8213 11.4541 46.7109 11.4541H45.1277V11.419ZM51.129 3.99113C51.129 3.01009 50.4295 2.34438 49.2513 2.34438H47.0422C46.9686 2.34438 46.9318 2.37942 46.9318 2.4495V5.56781C46.9318 5.63788 46.9686 5.67292 47.0422 5.67292H49.2513C50.4295 5.67292 51.129 5.00721 51.129 3.99113Z" fill="#3D4853"/>
<path d="M55.0317 11.4188C54.9213 11.4188 54.8477 11.3487 54.8477 11.2436V3.95584C54.8477 3.85073 54.9213 3.78065 55.0317 3.78065H56.5413C56.6517 3.78065 56.7254 3.85073 56.7254 3.95584V4.58651C57.0935 3.99088 57.7931 3.60547 58.7872 3.60547C59.4131 3.60547 60.039 3.85073 60.4808 4.23614C60.5544 4.30621 60.5912 4.37629 60.5176 4.44636L59.634 5.49748C59.5603 5.56755 59.4867 5.60259 59.4131 5.53252C59.0449 5.32229 58.6767 5.18214 58.2349 5.18214C57.204 5.18214 56.7254 5.88289 56.7254 7.10919V11.2436C56.7254 11.3487 56.6517 11.4188 56.5413 11.4188H55.0317Z" fill="#3D4853"/>
<path d="M61.5485 9.49172C61.3644 8.96616 61.2908 8.4406 61.2908 7.59971C61.2908 6.75882 61.3644 6.2683 61.5485 5.7077C61.9903 4.37629 63.2421 3.60547 64.8621 3.60547C66.4821 3.60547 67.6971 4.37629 68.1389 5.7077C68.323 6.23326 68.3966 6.75882 68.3966 7.59971C68.3966 8.4406 68.323 8.93113 68.1389 9.49172C67.6971 10.8231 66.4453 11.594 64.8621 11.594C63.2421 11.594 61.9903 10.8231 61.5485 9.49172ZM66.3348 9.0012C66.4821 8.61579 66.5189 8.23038 66.5189 7.59971C66.5189 6.96904 66.4821 6.61867 66.3348 6.19822C66.1139 5.56755 65.5985 5.21718 64.8253 5.21718C64.0889 5.21718 63.5367 5.56755 63.3157 6.19822C63.1685 6.61867 63.1317 6.96904 63.1317 7.59971C63.1317 8.23038 63.1685 8.61579 63.3157 9.0012C63.5367 9.63187 64.0889 9.98224 64.8253 9.98224C65.5985 10.0173 66.1139 9.63187 66.3348 9.0012Z" fill="#3D4853"/>
<path d="M72.5569 11.4189C72.4465 11.4189 72.3728 11.3488 72.336 11.2437L69.501 3.95595C69.4642 3.85084 69.5378 3.78076 69.6483 3.78076H71.2683C71.3787 3.78076 71.4524 3.85084 71.4524 3.95595L73.2196 8.89619H73.2564L74.9869 3.95595C75.0237 3.85084 75.0973 3.78076 75.171 3.78076H76.7541C76.8646 3.78076 76.9382 3.85084 76.9014 3.95595L74.0664 11.2437C74.0296 11.3488 73.956 11.4189 73.8455 11.4189H72.5569Z" fill="#3D4853"/>
<path d="M78.7056 2.34438C78.5951 2.34438 78.5215 2.27431 78.5215 2.1692V0.837784C78.5215 0.732672 78.5951 0.662598 78.7056 0.662598H80.2151C80.3256 0.662598 80.3992 0.732672 80.3992 0.837784V2.20424C80.3992 2.30935 80.3256 2.37942 80.2151 2.37942H78.7056V2.34438ZM78.7056 11.419C78.5951 11.419 78.5215 11.349 78.5215 11.2438V3.9561C78.5215 3.85099 78.5951 3.78091 78.7056 3.78091H80.2151C80.3256 3.78091 80.3992 3.85099 80.3992 3.9561V11.2438C80.3992 11.349 80.3256 11.419 80.2151 11.419H78.7056Z" fill="#3D4853"/>
<path d="M87.8731 11.4189C87.7626 11.4189 87.689 11.3488 87.689 11.2437V6.86405C87.689 5.88301 87.1736 5.2173 86.1795 5.2173C85.2222 5.2173 84.6699 5.88301 84.6699 6.86405V11.2437C84.6699 11.3488 84.5963 11.4189 84.4859 11.4189H82.9763C82.8659 11.4189 82.7922 11.3488 82.7922 11.2437V3.95596C82.7922 3.85085 82.8659 3.78077 82.9763 3.78077H84.4859C84.5963 3.78077 84.6699 3.85085 84.6699 3.95596V4.51656C85.0013 4.02603 85.7008 3.64062 86.7686 3.64062C88.4622 3.64062 89.5299 4.83189 89.5299 6.47864V11.2787C89.5299 11.3839 89.4563 11.4539 89.3458 11.4539H87.8731V11.4189Z" fill="#3D4853"/>
<path d="M91.7389 9.49172C91.5548 9.0012 91.4812 8.40557 91.4812 7.59971C91.4812 6.79386 91.5548 6.19822 91.7389 5.7077C92.2176 4.34125 93.4326 3.60547 95.0525 3.60547C96.2307 3.60547 97.188 4.06095 97.8139 4.79673C97.8507 4.86681 97.8875 4.97192 97.8139 5.00696L96.783 5.88289C96.7093 5.95296 96.5989 5.91793 96.5621 5.84785C96.1571 5.4274 95.7521 5.18214 95.0894 5.18214C94.3898 5.18214 93.8376 5.49748 93.5798 6.16319C93.4326 6.5486 93.3957 6.96904 93.3957 7.56468C93.3957 8.16031 93.4326 8.61579 93.5798 9.0012C93.8007 9.63187 94.353 9.98225 95.0894 9.98225C95.7521 9.98225 96.1571 9.73698 96.5621 9.31654C96.6357 9.24646 96.7093 9.24646 96.783 9.31654L97.8139 10.1925C97.8875 10.2625 97.8875 10.3326 97.8139 10.4027C97.188 11.1034 96.2307 11.5589 95.0525 11.5589C93.4326 11.594 92.1807 10.8582 91.7389 9.49172Z" fill="#3D4853"/>
<path d="M99.9495 2.34438C99.839 2.34438 99.7654 2.27431 99.7654 2.1692V0.837784C99.7654 0.732672 99.839 0.662598 99.9495 0.662598H101.459C101.569 0.662598 101.643 0.732672 101.643 0.837784V2.20424C101.643 2.30935 101.569 2.37942 101.459 2.37942H99.9495V2.34438ZM99.9495 11.419C99.839 11.419 99.7654 11.349 99.7654 11.2438V3.9561C99.7654 3.85099 99.839 3.78091 99.9495 3.78091H101.459C101.569 3.78091 101.643 3.85099 101.643 3.9561V11.2438C101.643 11.349 101.569 11.419 101.459 11.419H99.9495Z" fill="#3D4853"/>
<path d="M103.926 9.45668C103.742 8.96616 103.631 8.37053 103.631 7.59971C103.631 6.79385 103.742 6.19822 103.889 5.7077C104.331 4.37629 105.582 3.60547 107.166 3.60547C108.822 3.60547 110.001 4.41132 110.442 5.7077C110.626 6.23326 110.7 6.75882 110.7 7.98512C110.7 8.09023 110.626 8.16031 110.516 8.16031H105.582C105.509 8.16031 105.472 8.19534 105.472 8.26542C105.472 8.47564 105.509 8.68586 105.582 8.86105C105.84 9.59683 106.466 10.0173 107.387 10.0173C108.27 10.0173 108.859 9.70194 109.264 9.2815C109.338 9.21142 109.448 9.17639 109.522 9.24646L110.516 10.0523C110.59 10.1224 110.59 10.1925 110.516 10.2625C109.853 11.0334 108.712 11.5589 107.239 11.5589C105.582 11.594 104.367 10.7881 103.926 9.45668ZM108.749 6.09311C108.528 5.46244 107.939 5.11207 107.202 5.11207C106.429 5.11207 105.84 5.46244 105.619 6.09311C105.546 6.2683 105.509 6.47852 105.509 6.72378C105.509 6.79385 105.546 6.82889 105.619 6.82889H108.749C108.822 6.82889 108.859 6.79385 108.859 6.72378C108.859 6.47852 108.822 6.30333 108.749 6.09311Z" fill="#3D4853"/>
<path d="M45.3116 38.0471C45.1275 38.0471 44.9802 37.9069 44.9802 37.7317V34.9638C44.9802 34.8236 45.017 34.7536 45.0907 34.6134L55.3997 19.7226V19.6525H45.3116C45.1275 19.6525 44.9802 19.5124 44.9802 19.3372V16.5692C44.9802 16.3941 45.1275 16.2539 45.3116 16.2539H59.5601C59.7442 16.2539 59.8914 16.3941 59.8914 16.5692V19.3372C59.8914 19.4773 59.8546 19.5474 59.781 19.6525L49.4352 34.5784V34.6484H59.5233C59.7073 34.6484 59.8546 34.7886 59.8546 34.9638V37.7317C59.8546 37.9069 59.7073 38.0471 59.5233 38.0471H45.3116Z" fill="#3D4853"/>
<path d="M62.4687 34.1232C62.1374 33.1422 61.8796 31.9509 61.8796 30.3392C61.8796 28.7275 62.0637 27.5012 62.4319 26.5201C63.3524 23.8223 65.8191 22.2456 69.0591 22.2456C72.4095 22.2456 74.8027 23.8924 75.7231 26.5201C76.0913 27.6063 76.2754 28.6574 76.2754 31.1801C76.2754 31.3553 76.1281 31.4954 75.9072 31.4954H65.8928C65.7455 31.4954 65.7087 31.5655 65.7087 31.6706C65.7087 32.1261 65.8191 32.5115 65.9296 32.8619C66.4819 34.3685 67.7337 35.2094 69.5746 35.2094C71.3786 35.2094 72.5568 34.5787 73.3668 33.7378C73.5509 33.5626 73.6981 33.5626 73.8822 33.6677L75.8704 35.3495C76.0545 35.4897 76.0545 35.6298 75.9072 35.805C74.5081 37.3466 72.2254 38.4328 69.2432 38.4328C65.8191 38.3978 63.3892 36.786 62.4687 34.1232ZM72.2991 27.291C71.8573 26.0296 70.6423 25.2938 69.1327 25.2938C67.5864 25.2938 66.3714 26.0296 65.9296 27.291C65.7823 27.6764 65.7455 28.0618 65.7455 28.6224C65.7455 28.7625 65.8191 28.7976 65.9296 28.7976H72.2991C72.4463 28.7976 72.4832 28.7275 72.4832 28.6224C72.4832 28.0618 72.4095 27.6764 72.2991 27.291Z" fill="#3D4853"/>
<path d="M80.0307 34.1232C79.6994 33.1422 79.4417 31.9509 79.4417 30.3392C79.4417 28.7275 79.6257 27.5012 79.9939 26.5201C80.9144 23.8223 83.3812 22.2456 86.6211 22.2456C89.9715 22.2456 92.3647 23.8924 93.2852 26.5201C93.6533 27.6063 93.8374 28.6574 93.8374 31.1801C93.8374 31.3553 93.6901 31.4954 93.4692 31.4954H83.4548C83.3075 31.4954 83.2707 31.5655 83.2707 31.6706C83.2707 32.1261 83.3812 32.5115 83.4916 32.8619C84.0439 34.3685 85.2957 35.2094 87.1366 35.2094C88.9407 35.2094 90.1188 34.5787 90.9288 33.7378C91.1129 33.5626 91.2602 33.5626 91.4443 33.6677L93.4324 35.3495C93.6165 35.4897 93.6165 35.6298 93.4692 35.805C92.0702 37.3466 89.7875 38.4328 86.8052 38.4328C83.3812 38.3978 80.9512 36.786 80.0307 34.1232ZM89.8243 27.291C89.3825 26.0296 88.1675 25.2938 86.6579 25.2938C85.1116 25.2938 83.8966 26.0296 83.4548 27.291C83.3075 27.6764 83.2707 28.0618 83.2707 28.6224C83.2707 28.7625 83.3443 28.7976 83.4548 28.7976H89.8243C89.9715 28.7976 90.0084 28.7275 90.0084 28.6224C90.0452 28.0618 89.9715 27.6764 89.8243 27.291Z" fill="#3D4853"/>
<path d="M102.342 38.2573C99.1761 38.2573 97.8875 36.8208 97.8875 33.8426V16.5692C97.8875 16.3941 98.0347 16.2539 98.2188 16.2539H101.312C101.496 16.2539 101.643 16.3941 101.643 16.5692V33.6324C101.643 34.6835 102.085 35.0339 103.042 35.0339H103.778C103.962 35.0339 104.11 35.174 104.11 35.3492V37.9069C104.11 38.0821 103.962 38.2222 103.778 38.2222H102.342V38.2573Z" fill="#3D4853"/>
<path d="M117.438 38.047C117.254 38.047 117.106 37.9069 117.106 37.7317V36.6105H117.07C116.296 37.6616 114.787 38.3974 112.504 38.3974C109.522 38.3974 107.055 36.9258 107.055 33.7024C107.055 30.3388 109.559 28.7972 113.572 28.7972H116.886C117.033 28.7972 117.07 28.7271 117.07 28.622V27.8862C117.07 26.1344 116.186 25.3285 113.461 25.3285C111.657 25.3285 110.516 25.819 109.743 26.3796C109.559 26.5198 109.375 26.4847 109.264 26.3096L108.012 24.2073C107.902 24.0321 107.939 23.892 108.086 23.7869C109.412 22.8759 111.179 22.2803 113.83 22.2803C118.763 22.2803 120.604 23.892 120.604 27.676V37.7667C120.604 37.9419 120.457 38.0821 120.273 38.0821H117.438V38.047ZM117.033 32.8615V31.6702C117.033 31.5301 116.959 31.4951 116.849 31.4951H114.161C111.731 31.4951 110.663 32.1257 110.663 33.5623C110.663 34.8586 111.657 35.4893 113.461 35.4893C115.744 35.4893 117.033 34.6134 117.033 32.8615Z" fill="#3D4853"/>
<path d="M135.663 38.0474C135.478 38.0474 135.331 37.9072 135.331 37.7321V28.8326C135.331 26.8355 134.3 25.469 132.275 25.469C130.324 25.469 129.183 26.8355 129.183 28.8326V37.7321C129.183 37.9072 129.035 38.0474 128.851 38.0474H125.722C125.538 38.0474 125.39 37.9072 125.39 37.7321V22.9113C125.39 22.7361 125.538 22.596 125.722 22.596H128.814C128.999 22.596 129.146 22.7361 129.146 22.9113V24.0325H129.183C129.882 23.0865 131.318 22.2456 133.453 22.2456C136.914 22.2456 139.087 24.6982 139.087 27.9917V37.7321C139.087 37.9072 138.939 38.0474 138.755 38.0474H135.663Z" fill="#3D4853"/>
<path d="M153.85 38.0471C153.666 38.0471 153.519 37.9069 153.519 37.7317V36.5755H153.482C152.709 37.6266 151.347 38.3974 149.175 38.3974C146.413 38.3974 144.388 37.1361 143.541 34.6835C143.136 33.4922 142.952 32.4061 142.952 30.3389C142.952 28.2717 143.136 27.1505 143.541 25.9943C144.388 23.5416 146.413 22.2803 149.175 22.2803C151.347 22.2803 152.709 23.0511 153.482 24.1022H153.519V16.5692C153.519 16.3941 153.666 16.2539 153.85 16.2539H156.943C157.127 16.2539 157.275 16.3941 157.275 16.5692V37.7317C157.275 37.9069 157.127 38.0471 156.943 38.0471H153.85ZM153.188 33.2119C153.409 32.5112 153.519 31.7404 153.519 30.3389C153.519 28.9374 153.409 28.1666 153.188 27.4658C152.746 26.1694 151.715 25.4687 150.169 25.4687C148.659 25.4687 147.591 26.1694 147.186 27.4658C146.966 28.1666 146.855 28.9374 146.855 30.3389C146.855 31.7404 146.966 32.5112 147.186 33.2119C147.628 34.5083 148.659 35.209 150.169 35.209C151.678 35.209 152.746 34.5083 153.188 33.2119Z" fill="#3D4853"/>
<path d="M22.5584 20.5989C24.0311 19.5478 25.5774 18.4266 27.0869 17.2704C35.2237 10.8936 35.8864 4.37666 35.9232 0.697754H31.9101C31.8733 3.88614 31.2474 9.03661 24.5465 14.3272C23.1106 15.4484 21.6011 16.5346 20.1652 17.5507C13.0225 22.596 5.6958 27.8866 5.6958 38.8533V42.1468L9.70894 43.1629V38.8533C9.70894 29.7786 15.6734 25.5041 22.5584 20.5989Z" fill="#C2004B"/>
<path d="M37.6537 33.5625V29.2529C37.6537 29.288 35.6288 30.6895 34.377 31.4252C27.1238 35.6297 26.6084 37.2414 26.6084 42.5671V44.9146L30.6215 43.8985V41.3758C30.6215 38.6079 31.3947 37.5568 34.9292 35.3494C36.4756 34.4034 37.6537 33.5625 37.6537 33.5625Z" fill="#C2004B"/>
<path d="M36.3283 37.6971C34.1192 39.2738 33.6038 39.449 33.6038 41.7264V43.1279L37.6537 42.1118V36.7861C37.6537 36.7861 37.2487 37.0664 36.3283 37.6971Z" fill="#C2004B"/>
<path d="M17.5144 0.662598L17.2567 1.39838H5.76953V6.05833C5.76953 8.12553 7.38952 8.4759 8.6045 8.4759C8.6045 8.4759 10.7399 8.4759 12.6176 8.4759C14.0904 8.4759 16.594 9.38687 16.594 12.0147C16.594 13.0307 15.9681 14.5373 14.2008 14.5373C12.3599 14.5373 11.6604 13.6264 11.5867 13.0658H5.76953V17.3754L14.4585 18.5316C21.7853 12.7504 29.2593 9.73724 29.2593 0.662598H17.5144ZM18.2876 6.4087V3.15024H23.258C23.258 3.15024 21.8589 5.70796 18.2876 6.4087Z" fill="#C2004B"/>
<path d="M14.2008 12.8905C13.7221 12.8905 13.4276 12.5401 13.2803 12.0496C13.2435 11.8394 13.0226 11.6292 12.5808 11.6292H6.2113C1.75635 11.6292 0.909535 8.75611 0.725446 7.24951C0.688628 6.79402 1.01999 6.37358 1.49862 6.33854C1.97725 6.26847 2.38225 6.61884 2.45588 7.07432C2.52952 7.35462 2.8977 9.91234 6.17448 9.91234H11.9917C12.2494 9.91234 13.5749 9.8773 14.3849 10.578C14.8267 10.9635 14.9739 11.3489 15.0108 11.9795C15.0844 12.435 14.6794 12.8905 14.2008 12.8905Z" fill="#C2004B"/>
<path d="M28.1546 19.7929C27.3078 20.3886 26.4978 21.0192 25.651 21.6149C22.1901 24.1025 18.6924 26.485 16.1888 29.5333C14.0534 32.2311 12.6543 35.4195 12.6543 39.4838V43.8985L16.6674 44.9146V39.4838C16.6674 32.5114 21.9692 28.7624 28.081 24.4529C28.9278 23.8572 29.7746 23.2616 30.6214 22.6309C33.4564 20.5637 35.8127 18.3564 37.6168 16.114V7.70508C37.1381 9.59709 35.2604 14.8527 28.1546 19.7929Z" fill="#C2004B"/>
<path d="M19.6499 40.1493C19.6499 39.4836 19.6867 38.853 19.7972 38.2573C19.6867 38.853 19.6499 39.4836 19.6499 40.1493Z" fill="#C2004B"/>
<path d="M30.5847 26.0996C25.8352 29.2529 19.613 33.072 19.613 40.1495V45.6504L21.638 46.1759L23.663 45.6504V40.1495C23.663 35.0691 27.713 32.3713 32.8306 28.9726C33.3093 28.6573 33.7879 28.342 34.2665 28.0266C35.5183 27.1857 36.6597 26.3449 37.6538 25.539V20.6338C36.2547 22.1054 34.4506 23.5419 32.0206 25.1536C31.542 25.4689 31.0634 25.7843 30.5847 26.0996Z" fill="#C2004B"/>
</g>
<defs>
<clipPath id="clip0">
<rect width="158" height="46.8696" fill="white"/>
</clipPath>
</defs>
</svg>
