<?xml version="1.0" encoding="utf-8"?>
<!-- Generator: Adobe Illustrator 21.1.0, SVG Export Plug-In . SVG Version: 6.00 Build 0)  -->
<svg version="1.1" xmlns="http://www.w3.org/2000/svg" xmlns:xlink="http://www.w3.org/1999/xlink" x="0px" y="0px"
	 viewBox="0 0 396.85 113.386" enable-background="new 0 0 396.85 113.386" xml:space="preserve">
<g id="hulp" display="none">
	
		<text transform="matrix(1 0 0 1 70.4433 -151.9907)" display="inline" fill="#0B3A42" font-family="'MiriamLibre-Bold'" font-size="60px" letter-spacing="-1">OSGeo</text>
	
		<text transform="matrix(1 0 0 1 113.7122 -111.0424)" display="inline" fill="#0B3A42" font-family="'MiriamLibre-Regular'" font-size="21.4983px">Nederland</text>
</g>
<g id="guides" display="none">
</g>
<g id="Dutch_Local_Chapter">
	<g>
		<path fill="#0B3A42" d="M116.88,101.731V88.336c0-0.43,0.345-0.774,0.774-0.774h3.827c3.096,0,5.611,2.516,5.611,5.676v3.59
			c0,3.16-2.516,5.676-5.611,5.676h-3.827C117.225,102.504,116.88,102.161,116.88,101.731z M121.482,100.849
			c2.128,0,3.849-1.72,3.849-3.87v-3.913c0-2.15-1.721-3.848-3.849-3.848h-2.838v11.631H121.482z"/>
		<path fill="#0B3A42" d="M130.403,98.72v-8.083c0-0.172,0.129-0.301,0.301-0.301h1.075c0.172,0,0.301,0.129,0.301,0.301v7.761
			c0,1.871,1.097,2.816,2.666,2.816c1.871,0,3.204-1.29,3.204-3.547v-7.03c0-0.172,0.129-0.301,0.301-0.301h1.075
			c0.172,0,0.301,0.129,0.301,0.301v11.567c0,0.172-0.129,0.301-0.301,0.301h-1.075c-0.172,0-0.301-0.129-0.301-0.301V101
			c-0.753,1.183-2,1.784-3.462,1.784C132.037,102.784,130.403,101.15,130.403,98.72z"/>
		<path fill="#0B3A42" d="M144.14,99.215v-7.31h-1.419c-0.172,0-0.301-0.129-0.301-0.301v-0.967c0-0.172,0.129-0.301,0.301-0.301
			h1.419v-2.257c0-0.172,0.129-0.301,0.301-0.301h1.075c0.172,0,0.301,0.129,0.301,0.301v2.257h3.784
			c0.172,0,0.301,0.129,0.301,0.301v0.989c0,0.172-0.129,0.301-0.301,0.301h-3.784v7.095c0,1.118,0.731,1.849,1.827,1.871
			l1.957,0.021c0.172,0,0.301,0.129,0.301,0.301v0.989c0,0.172-0.129,0.301-0.301,0.301h-2.15
			C145.301,102.504,144.14,101.021,144.14,99.215z"/>
		<path fill="#0B3A42" d="M152.159,98.097v-3.354c0-2.602,2.086-4.687,4.665-4.687c1.269,0,2.387,0.495,3.204,1.29
			c0.086,0.086,0.129,0.193,0.129,0.301s-0.043,0.215-0.129,0.323c-0.15,0.172-0.301,0.322-0.495,0.494
			c-0.107,0.086-0.215,0.129-0.322,0.129c-0.129,0-0.236-0.043-0.344-0.151c-0.537-0.494-1.247-0.795-2.043-0.795
			c-1.655,0-2.988,1.333-2.988,2.989v3.569c0,1.655,1.333,2.988,2.988,2.988c0.796,0,1.506-0.301,2.043-0.795
			c0.107-0.107,0.215-0.15,0.344-0.15c0.107,0,0.215,0.043,0.322,0.129c0.172,0.15,0.323,0.301,0.495,0.495
			c0.086,0.086,0.129,0.193,0.129,0.322c0,0.107-0.043,0.215-0.129,0.301c-0.817,0.795-1.936,1.29-3.204,1.29
			C154.245,102.784,152.159,100.698,152.159,98.097z"/>
		<path fill="#0B3A42" d="M163.273,102.204V86.487c0-0.172,0.129-0.301,0.302-0.301h1.074c0.173,0,0.302,0.129,0.302,0.301v5.353
			c0.752-1.182,1.999-1.784,3.461-1.784c2.451,0,4.085,1.634,4.085,4.063v8.084c0,0.172-0.129,0.301-0.301,0.301h-1.075
			c-0.172,0-0.301-0.129-0.301-0.301v-7.762c0-1.87-1.097-2.816-2.666-2.816c-1.87,0-3.203,1.29-3.203,3.547v7.031
			c0,0.172-0.129,0.301-0.302,0.301h-1.074C163.402,102.504,163.273,102.376,163.273,102.204z"/>
		<path fill="#0B3A42" d="M181.847,101.731V87.863c0-0.172,0.129-0.301,0.302-0.301h1.16c0.173,0,0.302,0.129,0.302,0.301v12.986
			h5.439c0.172,0,0.301,0.129,0.301,0.301v1.054c0,0.172-0.129,0.301-0.301,0.301h-6.429
			C182.192,102.504,181.847,102.161,181.847,101.731z"/>
		<path fill="#0B3A42" d="M191.286,98.097v-3.354c0-2.602,2.086-4.687,4.665-4.687c2.58,0,4.666,2.085,4.666,4.687v3.354
			c0,2.601-2.086,4.687-4.666,4.687C193.371,102.784,191.286,100.698,191.286,98.097z M198.94,98.205v-3.569
			c0-1.656-1.333-2.989-2.989-2.989c-1.655,0-2.988,1.333-2.988,2.989v3.569c0,1.655,1.333,2.988,2.988,2.988
			C197.607,101.193,198.94,99.86,198.94,98.205z"/>
		<path fill="#0B3A42" d="M203.518,98.097v-3.354c0-2.602,2.086-4.687,4.665-4.687c1.269,0,2.387,0.495,3.204,1.29
			c0.086,0.086,0.129,0.193,0.129,0.301s-0.043,0.215-0.129,0.323c-0.15,0.172-0.301,0.322-0.495,0.494
			c-0.107,0.086-0.215,0.129-0.322,0.129c-0.129,0-0.236-0.043-0.344-0.151c-0.537-0.494-1.247-0.795-2.043-0.795
			c-1.655,0-2.988,1.333-2.988,2.989v3.569c0,1.655,1.333,2.988,2.988,2.988c0.796,0,1.506-0.301,2.043-0.795
			c0.107-0.107,0.215-0.15,0.344-0.15c0.107,0,0.215,0.043,0.322,0.129c0.172,0.15,0.323,0.301,0.495,0.495
			c0.086,0.086,0.129,0.193,0.129,0.322c0,0.107-0.043,0.215-0.129,0.301c-0.817,0.795-1.936,1.29-3.204,1.29
			C205.604,102.784,203.518,100.698,203.518,98.097z"/>
		<path fill="#0B3A42" d="M213.665,99.387c0-1.892,1.354-3.182,3.633-3.504c1.032-0.15,1.871-0.258,2.795-0.387
			c0.839-0.129,1.183-0.538,1.183-1.376v-0.172c0-1.397-1.247-2.301-2.816-2.301c-1.29,0-2.235,0.559-2.752,1.419
			c-0.107,0.172-0.258,0.28-0.43,0.28c-0.086,0-0.193-0.043-0.279-0.107l-0.581-0.387c-0.129-0.107-0.193-0.215-0.193-0.366
			c0-0.064,0.021-0.129,0.064-0.215c0.796-1.333,2.279-2.214,4.214-2.214c2.623,0,4.407,1.548,4.407,3.892v8.256
			c0,0.172-0.129,0.301-0.301,0.301h-0.902c-0.172,0-0.302-0.129-0.302-0.301v-1.484c-0.881,1.29-2.321,2.064-3.977,2.064
			C215.235,102.784,213.665,101.429,213.665,99.387z M221.34,97.646v-0.881c-1.312,0.15-2.149,0.279-3.912,0.537
			c-1.42,0.215-2.15,0.903-2.15,2.021c0,1.183,0.946,1.957,2.322,1.957C219.835,101.279,221.34,99.215,221.34,97.646z"/>
		<path fill="#0B3A42" d="M227.252,101.731V87.777h-2c-0.172,0-0.301-0.129-0.301-0.301v-0.989c0-0.172,0.129-0.301,0.301-0.301
			h2.903c0.43,0,0.773,0.344,0.773,0.774v13.954h2.279c0.172,0,0.301,0.129,0.301,0.301v0.989c0,0.172-0.129,0.301-0.301,0.301
			h-3.183C227.596,102.504,227.252,102.161,227.252,101.731z"/>
		<path fill="#0B3A42" d="M239.463,97.538v-5.031c0-2.902,2.301-5.246,5.139-5.246c1.548,0,2.881,0.559,3.87,1.548
			c0.15,0.15,0.15,0.344,0,0.538c-0.15,0.172-0.323,0.387-0.581,0.645c-0.172,0.129-0.43,0.15-0.623-0.043
			c-0.688-0.667-1.591-1.032-2.645-1.032c-1.871,0-3.376,1.656-3.376,3.59v5.031c0,1.935,1.505,3.59,3.376,3.59
			c1.054,0,1.956-0.366,2.645-1.032c0.193-0.193,0.451-0.172,0.623-0.043c0.258,0.258,0.431,0.473,0.581,0.645
			c0.15,0.194,0.15,0.387,0,0.538c-0.989,0.989-2.322,1.548-3.87,1.548C241.764,102.784,239.463,100.44,239.463,97.538z"/>
		<path fill="#0B3A42" d="M251.631,102.204V86.487c0-0.172,0.13-0.301,0.302-0.301h1.074c0.173,0,0.302,0.129,0.302,0.301v5.353
			c0.752-1.182,1.999-1.784,3.461-1.784c2.451,0,4.085,1.634,4.085,4.063v8.084c0,0.172-0.129,0.301-0.301,0.301h-1.075
			c-0.172,0-0.301-0.129-0.301-0.301v-7.762c0-1.87-1.097-2.816-2.666-2.816c-1.87,0-3.203,1.29-3.203,3.547v7.031
			c0,0.172-0.129,0.301-0.302,0.301h-1.074C251.761,102.504,251.631,102.376,251.631,102.204z"/>
		<path fill="#0B3A42" d="M263.541,99.387c0-1.892,1.354-3.182,3.633-3.504c1.032-0.15,1.871-0.258,2.795-0.387
			c0.839-0.129,1.183-0.538,1.183-1.376v-0.172c0-1.397-1.247-2.301-2.816-2.301c-1.29,0-2.235,0.559-2.752,1.419
			c-0.107,0.172-0.258,0.28-0.43,0.28c-0.086,0-0.193-0.043-0.279-0.107l-0.581-0.387c-0.129-0.107-0.193-0.215-0.193-0.366
			c0-0.064,0.021-0.129,0.064-0.215c0.796-1.333,2.279-2.214,4.214-2.214c2.623,0,4.408,1.548,4.408,3.892v8.256
			c0,0.172-0.13,0.301-0.302,0.301h-0.902c-0.173,0-0.302-0.129-0.302-0.301v-1.484c-0.881,1.29-2.321,2.064-3.977,2.064
			C265.111,102.784,263.541,101.429,263.541,99.387z M271.216,97.646v-0.881c-1.312,0.15-2.149,0.279-3.912,0.537
			c-1.42,0.215-2.15,0.903-2.15,2.021c0,1.183,0.946,1.957,2.322,1.957C269.711,101.279,271.216,99.215,271.216,97.646z"/>
		<path fill="#0B3A42" d="M276.44,106.353V90.637c0-0.172,0.13-0.301,0.302-0.301h0.988c0.172,0,0.302,0.129,0.302,0.301v0.946
			c0.816-0.989,1.978-1.526,3.268-1.526c2.473,0,4.493,2.021,4.493,4.493v3.741c0,2.472-1.999,4.493-4.515,4.493
			c-1.183,0-2.322-0.451-3.16-1.225v4.794c0,0.172-0.129,0.301-0.302,0.301h-1.074C276.57,106.654,276.44,106.525,276.44,106.353z
			 M284.116,98.205v-3.569c0-1.656-1.333-2.989-2.988-2.989c-1.677,0-3.01,1.333-3.01,2.989v3.569c0,1.655,1.333,2.988,3.01,2.988
			C282.783,101.193,284.116,99.86,284.116,98.205z"/>
		<path fill="#0B3A42" d="M289.554,99.215v-7.31h-1.419c-0.172,0-0.301-0.129-0.301-0.301v-0.967c0-0.172,0.129-0.301,0.301-0.301
			h1.419v-2.257c0-0.172,0.129-0.301,0.301-0.301h1.075c0.172,0,0.301,0.129,0.301,0.301v2.257h3.784
			c0.172,0,0.301,0.129,0.301,0.301v0.989c0,0.172-0.129,0.301-0.301,0.301h-3.784v7.095c0,1.118,0.731,1.849,1.827,1.871
			l1.957,0.021c0.172,0,0.301,0.129,0.301,0.301v0.989c0,0.172-0.129,0.301-0.301,0.301h-2.15
			C290.715,102.504,289.554,101.021,289.554,99.215z"/>
		<path fill="#0B3A42" d="M297.573,97.817v-3.074c0-2.602,2.086-4.687,4.665-4.687c2.58,0,4.666,2.085,4.666,4.687v1.462
			c0,0.43-0.344,0.774-0.774,0.774h-6.88v0.946c0,1.656,1.333,2.989,2.988,2.989h3.118c0.172,0,0.301,0.129,0.301,0.301v0.989
			c0,0.172-0.129,0.301-0.301,0.301h-3.118C299.659,102.504,297.573,100.419,297.573,97.817z M305.227,95.431v-0.795
			c0-1.656-1.333-2.989-2.989-2.989c-1.655,0-2.988,1.333-2.988,2.989v0.795H305.227z"/>
		<path fill="#0B3A42" d="M309.118,102.204v-0.989c0-0.172,0.129-0.301,0.301-0.301h1.784v-9.051h-1.784
			c-0.172,0-0.301-0.129-0.301-0.301v-0.924c0-0.172,0.129-0.301,0.301-0.301h2.688c0.43,0,0.774,0.344,0.774,0.774v1.075
			l1.246-0.967c1.075-0.817,1.592-1.011,2.279-1.011h0.646c0.193,0,0.301,0.129,0.301,0.301v1.053c0,0.172-0.129,0.301-0.301,0.301
			h-0.474c-0.666,0-1.118,0.15-2.43,1.204l-1.268,1.011v6.837h2.493c0.172,0,0.302,0.129,0.302,0.301v0.989
			c0,0.172-0.13,0.301-0.302,0.301h-5.955C309.246,102.504,309.118,102.376,309.118,102.204z"/>
	</g>
</g>
<g id="OSGeo.NL">
	<g>
		<path fill="#4DB05B" d="M122.799,70.78c-2.421-1.417-4.333-3.329-5.741-5.741c-1.406-2.413-2.112-5.057-2.112-7.928V44.376
			c0-2.871,0.706-5.512,2.112-7.922c1.409-2.415,3.321-4.33,5.741-5.741c2.418-1.419,5.054-2.128,7.912-2.128
			c2.855,0,5.491,0.708,7.912,2.128c2.418,1.411,4.333,3.326,5.739,5.741c1.409,2.41,2.112,5.052,2.112,7.922v12.734
			c0,2.871-0.703,5.515-2.112,7.928c-1.406,2.413-3.321,4.325-5.739,5.741c-2.421,1.414-5.057,2.122-7.912,2.122
			C127.853,72.902,125.217,72.194,122.799,70.78 M134.934,64.708c1.308-0.796,2.349-1.872,3.124-3.228
			c0.772-1.358,1.158-2.812,1.158-4.37V44.376c0-1.558-0.386-3.012-1.158-4.367c-0.775-1.353-1.816-2.434-3.124-3.23
			c-1.308-0.796-2.716-1.196-4.224-1.196s-2.916,0.399-4.224,1.196c-1.308,0.796-2.349,1.877-3.124,3.23
			c-0.772,1.355-1.161,2.809-1.161,4.367v12.734c0,1.558,0.389,3.012,1.161,4.37c0.775,1.355,1.816,2.431,3.124,3.228
			c1.308,0.796,2.716,1.196,4.224,1.196S133.627,65.504,134.934,64.708"/>
		<path fill="#4DB05B" d="M122.799,70.78c-2.421-1.417-4.333-3.329-5.741-5.741c-1.406-2.413-2.112-5.057-2.112-7.928V44.376
			c0-2.871,0.706-5.512,2.112-7.922c1.409-2.415,3.321-4.33,5.741-5.741c2.418-1.419,5.054-2.128,7.912-2.128
			c2.855,0,5.491,0.708,7.912,2.128c2.418,1.411,4.333,3.326,5.739,5.741c1.409,2.41,2.112,5.052,2.112,7.922v12.734
			c0,2.871-0.703,5.515-2.112,7.928c-1.406,2.413-3.321,4.325-5.739,5.741c-2.421,1.414-5.057,2.122-7.912,2.122
			C127.853,72.902,125.217,72.194,122.799,70.78 M134.934,64.708c1.308-0.796,2.349-1.872,3.124-3.228
			c0.772-1.358,1.158-2.812,1.158-4.37V44.376c0-1.558-0.386-3.012-1.158-4.367c-0.775-1.353-1.816-2.434-3.124-3.23
			c-1.308-0.796-2.716-1.196-4.224-1.196s-2.916,0.399-4.224,1.196c-1.308,0.796-2.349,1.877-3.124,3.23
			c-0.772,1.355-1.161,2.809-1.161,4.367v12.734c0,1.558,0.389,3.012,1.161,4.37c0.775,1.355,1.816,2.431,3.124,3.228
			c1.308,0.796,2.716,1.196,4.224,1.196S133.627,65.504,134.934,64.708"/>
		<path fill="#4DB05B" d="M158.005,71.794c-2.082-0.698-4.016-1.662-5.8-2.9c-0.2-0.12-0.338-0.328-0.415-0.626
			c-0.083-0.304-0.059-0.57,0.059-0.81l2.082-3.768c0.237-0.477,0.612-0.719,1.129-0.719c0.317,0,0.615,0.083,0.895,0.242
			c2.972,1.872,5.749,2.812,8.327,2.812c2.098,0,3.757-0.514,4.966-1.529c1.209-1.017,1.814-2.341,1.814-3.976
			c0-1.076-0.298-1.981-0.892-2.722c-0.597-0.738-1.39-1.366-2.378-1.885c-0.993-0.514-2.442-1.156-4.343-1.912l-1.726-0.716
			c-2.698-1.156-4.966-2.634-6.809-4.426c-1.845-1.795-2.77-4.429-2.77-7.896c0-2.431,0.546-4.586,1.638-6.458
			c1.092-1.875,2.607-3.329,4.551-4.367c1.944-1.036,4.184-1.555,6.721-1.555c2.104,0,4.194,0.352,6.277,1.049
			c2.08,0.7,3.955,1.664,5.622,2.9c0.197,0.117,0.336,0.328,0.415,0.628c0.08,0.298,0.059,0.57-0.059,0.807l-1.963,3.768
			c-0.237,0.479-0.618,0.716-1.132,0.716c-0.32,0-0.615-0.08-0.892-0.237c-1.547-0.999-3.025-1.715-4.431-2.154
			c-1.409-0.439-2.668-0.658-3.779-0.658c-1.784,0-3.193,0.49-4.224,1.462c-1.031,0.98-1.545,2.226-1.545,3.742
			c0,1.553,0.565,2.839,1.694,3.856c1.132,1.015,2.945,2.043,5.443,3.081c0.357,0.12,1.715,0.668,4.074,1.643
			c2.359,0.977,4.234,2.402,5.622,4.274c1.39,1.877,2.082,4.09,2.082,6.639c0,2.474-0.586,4.676-1.755,6.61
			c-1.169,1.936-2.807,3.441-4.908,4.516s-4.522,1.614-7.257,1.614C162.2,72.841,160.088,72.492,158.005,71.794"/>
		<path fill="#003A40" d="M191.702,70.78c-2.402-1.417-4.303-3.329-5.712-5.741c-1.409-2.413-2.109-5.057-2.109-7.928V44.376
			c0-2.871,0.7-5.512,2.109-7.925c1.409-2.415,3.31-4.327,5.712-5.739c2.397-1.419,5.025-2.128,7.882-2.128
			c2.498,0,4.817,0.453,6.958,1.345c2.141,0.897,3.965,2.208,5.472,3.917c0.237,0.282,0.357,0.62,0.357,1.02
			c0,0.397-0.16,0.796-0.474,1.196l-2.62,2.748c-0.317,0.322-0.634,0.479-0.951,0.479c-0.397,0-0.754-0.176-1.071-0.538
			c-1.984-2.109-4.522-3.169-7.616-3.169c-1.507,0-2.913,0.399-4.221,1.196c-1.31,0.796-2.351,1.877-3.124,3.23
			c-0.772,1.355-1.158,2.809-1.158,4.367v12.734c0,1.558,0.386,3.012,1.158,4.367c0.772,1.358,1.814,2.434,3.124,3.23
			c1.308,0.796,2.714,1.196,4.221,1.196c1.51,0,2.916-0.378,4.226-1.134c1.308-0.759,2.338-1.798,3.092-3.113
			c0.754-1.313,1.129-2.751,1.129-4.303v-2.932h-7.968c-0.359,0-0.655-0.12-0.895-0.357c-0.237-0.24-0.357-0.541-0.357-0.9v-4.303
			c0-0.357,0.12-0.66,0.357-0.897c0.24-0.242,0.535-0.357,0.895-0.357h12.551c0.714,0,1.316,0.248,1.814,0.743
			c0.495,0.501,0.743,1.108,0.743,1.824v6.937c0,2.871-0.706,5.515-2.112,7.928c-1.406,2.413-3.31,4.325-5.709,5.741
			c-2.402,1.414-5.009,2.122-7.821,2.122C196.727,72.902,194.098,72.194,191.702,70.78"/>
		<path fill="#003A40" d="M228.367,70.208c-2.162-1.273-3.877-3.009-5.145-5.203c-1.27-2.189-1.904-4.58-1.904-7.174v-6.458
			c0-2.591,0.634-4.985,1.904-7.179c1.268-2.189,2.983-3.925,5.145-5.201c2.16-1.276,4.53-1.917,7.108-1.917
			c2.578,0,4.948,0.642,7.108,1.917c2.162,1.276,3.877,3.012,5.145,5.201c1.27,2.194,1.907,4.588,1.907,7.179v4.008
			c0,0.716-0.25,1.324-0.743,1.821c-0.498,0.501-1.102,0.746-1.816,0.746h-18.62v0.304c0,1.952,0.684,3.614,2.053,4.99
			c1.369,1.377,3.025,2.061,4.967,2.061h9.459c0.357,0,0.655,0.122,0.892,0.362c0.237,0.24,0.357,0.535,0.357,0.895v4.309
			c0,0.357-0.12,0.655-0.357,0.897c-0.237,0.237-0.535,0.357-0.892,0.357h-9.459C232.896,72.123,230.526,71.484,228.367,70.208
			 M242.494,51.49v-0.535c0-1.957-0.684-3.619-2.051-4.996c-1.369-1.374-3.028-2.061-4.969-2.061c-1.941,0-3.598,0.687-4.967,2.061
			c-1.369,1.377-2.053,3.038-2.053,4.996v0.535H242.494z"/>
		<path fill="#003A40" d="M262.063,71.017c-2.162-1.257-3.877-2.959-5.148-5.113c-1.268-2.154-1.901-4.487-1.901-6.998v-7.835
			c0-2.511,0.634-4.844,1.901-6.998c1.27-2.149,2.985-3.856,5.148-5.113c2.16-1.254,4.53-1.883,7.108-1.883s4.945,0.628,7.108,1.883
			c2.16,1.257,3.877,2.964,5.148,5.113c1.268,2.154,1.904,4.487,1.904,6.998v7.835c0,2.511-0.636,4.844-1.904,6.998
			c-1.27,2.154-2.988,3.856-5.148,5.113c-2.162,1.257-4.53,1.883-7.108,1.883S264.223,72.274,262.063,71.017 M274.137,63.899
			c1.369-1.374,2.053-3.041,2.053-4.993v-7.835c0-1.952-0.684-3.616-2.053-4.993c-1.366-1.377-3.025-2.061-4.966-2.061
			c-1.944,0-3.6,0.684-4.969,2.061c-1.366,1.377-2.051,3.041-2.051,4.993v7.835c0,1.952,0.684,3.619,2.051,4.993
			c1.369,1.377,3.025,2.066,4.969,2.066C271.112,65.966,272.771,65.276,274.137,63.899"/>
		<path fill="#003A40" d="M274.139,63.902c1.369-1.374,2.053-3.041,2.053-4.994v-7.835c0-1.952-0.684-3.615-2.053-4.994
			c-1.367-1.376-3.025-2.06-4.968-2.06c-1.943,0-3.599,0.685-4.968,2.06c-1.367,1.378-2.051,3.041-2.051,4.994v7.835
			c0,1.952,0.685,3.62,2.051,4.994c1.369,1.376,3.025,2.067,4.968,2.067C271.114,65.969,272.772,65.277,274.139,63.902
			 M262.064,71.02c-2.161-1.256-3.877-2.958-5.148-5.113c-1.268-2.155-1.902-4.488-1.902-6.999v-7.835
			c0-2.511,0.634-4.844,1.902-6.999c1.27-2.148,2.986-3.857,5.148-5.113c2.159-1.254,4.53-1.884,7.107-1.884
			c2.579,0,4.945,0.629,7.109,1.884c2.159,1.256,3.877,2.965,5.148,5.113c1.268,2.155,1.904,4.488,1.904,6.999v7.835
			c0,2.511-0.636,4.844-1.904,6.999c-1.27,2.155-2.988,3.857-5.148,5.113c-2.164,1.257-4.53,1.884-7.109,1.884
			C266.593,72.903,264.223,72.276,262.064,71.02"/>
		<g>
			<path fill="#003A40" d="M314.447,70.966V31.068c0-0.96,0.78-1.74,1.74-1.74h4.92c0.66,0,1.26,0.36,1.619,0.9l14.4,24.359
				l2.879,5.04V30.588c0-0.72,0.54-1.26,1.261-1.26h4.319c0.72,0,1.26,0.54,1.26,1.26v39.898c0,0.96-0.779,1.74-1.739,1.74h-4.98
				c-0.659,0-1.26-0.36-1.619-0.9l-14.88-25.199l-2.34-4.08v28.919c0,0.78-0.54,1.26-1.26,1.26h-4.32
				C314.987,72.226,314.447,71.686,314.447,70.966z"/>
			<path fill="#003A40" d="M356.388,69.646V30.588c0-0.72,0.54-1.26,1.26-1.26h4.8c0.721,0,1.261,0.54,1.261,1.26v34.619h13.919
				c0.72,0,1.26,0.54,1.26,1.26v4.5c0,0.72-0.54,1.26-1.26,1.26h-18.659C357.528,72.226,356.388,71.086,356.388,69.646z"/>
		</g>
		<path fill="#4DB05B" d="M302.677,50.746c0-2.331-1.89-4.222-4.222-4.222c-2.331,0-4.222,1.89-4.222,4.222
			c0,2.331,1.89,4.222,4.222,4.222C300.786,54.968,302.677,53.077,302.677,50.746"/>
	</g>
</g>
<g id="OSGeo_mark">
	<g>
		<path fill="#4DB05B" d="M59.147,24.648v-8.692V7.21l-5.437,9.519c-14.811,3.315-26.041,16.097-27.003,31.666h8.694
			C36.444,35.761,46.514,25.691,59.147,24.648"/>
		<path fill="#003A40" d="M35.4,52.729H26.71h-8.747l9.519,5.437c3.317,14.811,16.095,26.041,31.664,27.003v-8.696
			C46.512,75.433,36.442,65.363,35.4,52.729"/>
		<path fill="#003A40" d="M87.23,48.394h8.692h8.745l-9.519-5.439C91.835,28.146,79.05,16.916,63.484,15.956v8.692
			C76.117,25.691,86.185,35.761,87.23,48.394"/>
		<path fill="#4DB05B" d="M63.482,76.475v8.692v8.747l5.437-9.519c14.811-3.315,26.041-16.1,27.003-31.664h-8.694
			C86.186,65.362,76.116,75.43,63.482,76.475"/>
		<path fill="#003A40" d="M61.288,52.419c-1.047,0-1.897-0.85-1.897-1.897c0-1.05,0.85-1.895,1.897-1.895
			c1.047,0,1.895,0.845,1.895,1.895C63.183,51.569,62.336,52.419,61.288,52.419 M63.996,47.88L47.904,37.151l10.729,16.093
			l16.093,10.729L63.996,47.88z"/>
		<polygon fill="#4DB05B" points="58.633,53.244 55.015,47.818 38.555,50.563 55.015,53.306 47.903,63.973 58.571,56.859 
			61.313,73.322 64.058,56.859 		"/>
		<polygon fill="#4DB05B" points="67.614,47.818 74.725,37.149 64.058,44.263 61.315,27.803 58.573,44.263 63.996,47.881 
			67.614,53.304 84.074,50.561 		"/>
	</g>
</g>
</svg>
